<!DOCTYPE svg PUBLIC "-//W3C//DTD SVG 20010904//EN" "http://www.w3.org/TR/2001/REC-SVG-20010904/DTD/svg10.dtd">
<svg version="1.0" xmlns="http://www.w3.org/2000/svg" width="900px" height="900px" viewBox="0 0 9000 9000" preserveAspectRatio="xMidYMid meet">
<g id="layer101" fill="#fdfdfd" stroke="none">
 <path d="M0 4500 l0 -4500 4500 0 4500 0 0 4500 0 4500 -684 0 -684 0 -27 -32 c-15 -18 -114 -128 -221 -244 -489 -534 -644 -735 -772 -1005 -96 -202 -135 -355 -150 -579 -11 -160 6 -387 40 -545 45 -206 139 -498 217 -667 11 -25 29 -67 39 -94 11 -27 46 -103 77 -169 31 -66 68 -145 82 -175 14 -30 52 -111 84 -179 33 -68 59 -125 59 -127 0 -2 11 -27 24 -56 13 -29 36 -82 51 -118 15 -36 33 -78 40 -95 26 -61 98 -262 120 -335 200 -662 229 -1278 89 -1825 -150 -583 -494 -1091 -944 -1395 -215 -145 -498 -265 -745 -315 -172 -34 -219 -37 -665 -32 -460 4 -479 5 -760 56 -318 57 -735 191 -1036 331 -119 56 -185 73 -255 68 -51 -4 -64 -9 -94 -38 l-34 -33 -118 22 c-334 64 -517 152 -650 316 -81 101 -123 208 -123 318 0 31 11 134 25 229 27 188 39 276 55 396 25 185 53 264 114 325 30 30 44 37 76 37 35 0 40 3 40 22 0 13 -42 187 -92 388 -87 341 -93 372 -92 465 0 88 3 107 27 158 36 78 36 138 -2 222 -33 72 -103 175 -151 220 -51 48 -125 146 -156 205 -21 40 -30 73 -32 122 -5 77 7 88 32 30 35 -83 157 -276 244 -386 93 -118 203 -236 221 -236 32 0 136 66 143 91 4 13 14 121 24 239 9 118 20 219 24 223 19 21 210 -94 210 -127 0 -7 -16 -20 -36 -29 -78 -38 -175 -140 -159 -168 12 -18 143 -75 217 -93 43 -11 109 -17 183 -17 63 0 115 -2 115 -5 0 -5 -88 -62 -150 -96 -106 -58 -254 -105 -408 -129 -64 -10 -86 -17 -94 -32 -15 -29 -12 -91 7 -131 l16 -34 74 38 c98 49 184 70 294 70 89 0 121 -5 121 -20 0 -9 -353 -190 -429 -220 -30 -11 -73 -29 -95 -39 -23 -11 -58 -26 -78 -34 -21 -9 -38 -19 -38 -22 0 -3 9 -22 19 -43 26 -51 66 -175 81 -247 6 -33 16 -80 21 -104 6 -24 9 -130 9 -235 -1 -140 3 -203 13 -236 18 -57 -11 -56 371 -5 60 8 114 19 118 23 6 6 -2 18 -18 31 -21 16 -35 20 -65 15 -21 -4 -50 -3 -64 0 -37 9 -118 86 -106 100 5 6 11 22 13 36 1 14 11 26 21 28 21 4 75 -39 99 -79 10 -17 26 -29 38 -29 11 0 29 -6 40 -12 16 -10 22 -10 35 3 15 15 12 91 -11 287 -6 50 0 62 22 44 15 -14 244 -105 249 -100 3 3 -2 22 -11 44 -12 28 -15 55 -10 97 7 65 22 101 68 153 59 67 126 99 308 146 205 52 332 135 419 272 40 64 81 171 81 212 0 12 -41 105 -91 205 -136 275 -147 308 -112 359 25 36 45 49 74 50 35 0 49 -18 49 -63 0 -67 49 -195 78 -205 16 -5 72 58 72 82 0 13 -23 44 -60 81 -33 33 -60 62 -60 65 0 13 131 30 230 30 115 0 188 -17 248 -58 22 -15 103 -85 181 -155 262 -240 411 -349 571 -418 275 -118 515 -84 700 101 131 130 166 250 120 410 -82 291 -101 420 -101 685 0 217 11 327 51 502 59 259 134 444 284 697 148 249 163 294 171 521 13 365 67 597 201 866 47 96 138 241 192 307 32 39 38 42 83 42 27 0 49 4 49 9 0 7 -176 118 -265 167 -11 6 -65 38 -120 71 -55 33 -212 126 -350 208 -137 81 -316 188 -398 237 l-147 88 -781 0 -780 0 6 -22 c13 -42 44 -109 65 -137 29 -42 25 -62 -25 -135 -61 -87 -100 -176 -174 -396 -66 -196 -120 -313 -193 -421 -58 -86 -77 -165 -59 -253 22 -110 34 -121 149 -142 15 -3 22 -11 22 -28 0 -31 8 -37 31 -23 26 16 35 2 18 -30 -8 -14 -14 -39 -14 -54 0 -33 -18 -40 -23 -9 -4 22 -14 25 -42 10 -16 -8 -17 -14 -7 -39 9 -25 8 -33 -7 -50 -39 -43 -111 -44 -189 -4 -23 11 -26 17 -17 29 10 11 7 19 -11 39 -38 39 -76 34 -129 -20 -45 -46 -94 -66 -113 -45 -9 8 -7 15 7 25 17 13 17 15 3 21 -25 9 -47 -3 -47 -24 0 -24 -16 -38 -53 -47 -26 -7 -28 -6 -25 21 3 25 -1 29 -23 32 -14 2 -36 -6 -50 -17 -21 -17 -22 -22 -11 -40 17 -29 15 -39 -9 -51 -15 -8 -24 -8 -34 0 -11 9 -16 7 -25 -10 -15 -28 -35 -20 -36 14 -1 29 -18 54 -27 39 -3 -5 -3 -28 0 -51 4 -33 9 -41 22 -37 23 7 44 -9 39 -31 -3 -17 -13 -19 -74 -18 -56 0 -79 5 -117 26 -35 20 -56 25 -81 21 -20 -3 -44 1 -62 10 -28 15 -33 14 -91 -14 -113 -54 -185 -159 -184 -271 0 -48 5 -66 25 -93 15 -19 35 -37 46 -40 17 -5 20 -15 20 -60 0 -69 -41 -149 -97 -190 -40 -29 -54 -57 -33 -70 17 -10 12 -48 -5 -41 -21 8 -19 -5 11 -63 35 -66 44 -138 18 -148 -44 -17 -166 187 -167 280 -1 50 0 51 66 111 84 76 90 98 52 191 -24 61 -26 78 -23 164 3 84 7 105 35 161 76 154 167 204 513 281 80 17 161 35 180 39 19 5 60 13 90 20 30 7 71 16 90 20 19 4 60 13 90 20 75 17 124 43 155 84 23 30 27 47 34 159 9 117 12 131 50 209 22 46 65 124 97 173 89 143 88 140 191 470 13 44 38 105 55 135 17 30 40 72 51 93 l20 38 -37 52 c-21 29 -50 71 -64 95 l-27 42 -1942 0 -1943 0 0 -4500z m4358 4139 c-2 -6 -8 -10 -13 -10 -5 0 -11 4 -13 10 -2 6 4 11 13 11 9 0 15 -5 13 -11z m-380 -1267 c2 -7 -3 -12 -12 -12 -9 0 -16 7 -16 16 0 17 22 14 28 -4z m-42 -63 c2 -57 -38 -128 -62 -108 -13 10 -12 15 8 36 16 17 23 38 24 71 3 58 2 54 16 50 7 -3 13 -24 14 -49z m64 10 c0 -10 -7 -19 -15 -19 -15 0 -21 31 -9 43 11 10 24 -3 24 -24z m-487 -52 c-8 -32 -43 -67 -69 -67 -12 0 -27 -7 -34 -15 -16 -20 -39 -19 -62 2 -32 29 -22 43 30 43 70 0 91 9 98 39 10 38 14 43 29 31 7 -6 11 -21 8 -33z m-195 -88 c-2 -6 -8 -10 -13 -10 -5 0 -11 4 -13 10 -2 6 4 11 13 11 9 0 15 -5 13 -11z m-68 -13 c0 -22 -29 -41 -42 -28 -8 8 -8 15 2 27 16 19 40 20 40 1z m530 4 c0 -5 -4 -10 -10 -10 -5 0 -10 5 -10 10 0 6 5 10 10 10 6 0 10 -4 10 -10z m48 -18 c2 -7 -3 -12 -12 -12 -9 0 -16 7 -16 16 0 17 22 14 28 -4z m-508 -17 c0 -8 -7 -15 -15 -15 -16 0 -20 12 -8 23 11 12 23 8 23 -8z m401 -19 c21 -27 21 -30 6 -55 -18 -30 -33 -26 -29 8 4 30 -23 60 -49 54 -12 -4 -19 0 -19 9 0 28 65 17 91 -16z m-113 -8 c3 -15 -3 -17 -40 -14 -24 2 -45 4 -47 5 -2 1 2 8 9 17 18 21 74 15 78 -8z m-508 -3 c0 -8 -4 -15 -10 -15 -5 0 -10 7 -10 15 0 8 5 15 10 15 6 0 10 -7 10 -15z m435 -75 c-20 -22 -35 -26 -35 -8 0 20 33 49 44 38 6 -6 3 -16 -9 -30z m-365 0 c0 -5 9 -10 20 -10 11 0 20 -6 20 -14 0 -9 -11 -13 -32 -12 -26 1 -34 6 -36 24 -2 15 2 22 12 22 9 0 16 -4 16 -10z m123 -20 c19 -16 37 -30 41 -30 3 0 19 14 35 32 19 21 33 29 44 25 23 -9 21 -42 -4 -66 -17 -16 -19 -23 -9 -41 18 -33 6 -50 -35 -50 -22 0 -38 -6 -41 -15 -4 -8 -12 -15 -20 -15 -17 0 -19 61 -3 77 9 9 2 21 -30 49 -42 38 -53 64 -26 64 8 0 30 -13 48 -30z m407 -5 c0 -8 -7 -15 -15 -15 -8 0 -15 7 -15 15 0 8 7 15 15 15 8 0 15 -7 15 -15z m-174 -61 c10 -41 -55 -81 -83 -53 -19 19 -4 40 24 32 24 -5 25 -4 20 19 -4 14 -4 28 -1 31 11 11 34 -5 40 -29z m-316 -29 c0 -8 -4 -15 -9 -15 -13 0 -22 16 -14 24 11 11 23 6 23 -9z m468 -42 c3 -27 0 -33 -15 -33 -19 0 -63 34 -63 49 0 15 15 22 45 19 26 -3 30 -7 33 -35z m-394 -48 c21 -33 21 -33 -19 -33 -37 0 -48 21 -23 46 17 17 24 15 42 -13z m116 -25 c0 -5 -4 -10 -10 -10 -5 0 -10 5 -10 10 0 6 5 10 10 10 6 0 10 -4 10 -10z m-60 -36 c0 -17 -22 -14 -28 4 -2 7 3 12 12 12 9 0 16 -7 16 -16z m-481 -446 c9 -24 8 -35 -3 -47 -7 -9 -11 -21 -9 -28 2 -6 -6 -14 -18 -18 -27 -9 -42 12 -27 38 5 10 7 30 4 43 -14 53 35 64 53 12z m-282 -107 c24 -24 57 -41 82 -41 11 0 33 -11 50 -26 17 -14 38 -24 47 -22 13 2 20 -7 26 -37 13 -57 4 -97 -41 -189 -43 -88 -66 -142 -100 -226 -26 -67 -97 -142 -112 -120 -22 33 7 121 63 192 21 27 26 39 16 42 -32 10 -170 16 -236 10 -66 -6 -72 -9 -72 -30 0 -15 20 -40 63 -78 55 -48 63 -60 64 -92 1 -20 6 -47 12 -60 6 -13 16 -35 22 -48 13 -28 7 -110 -14 -191 -29 -106 -18 -361 17 -446 4 -10 3 -20 -3 -24 -22 -13 -51 7 -61 43 -42 139 -59 242 -66 387 -3 72 -10 139 -15 151 -10 19 -39 37 -104 63 -39 17 -290 52 -310 45 -8 -4 -20 -14 -25 -24 -5 -9 -35 -30 -65 -46 -72 -36 -102 -72 -111 -132 -11 -74 20 -250 56 -314 17 -30 12 -48 -13 -48 -33 0 -53 26 -78 101 -78 237 -64 391 44 484 91 79 159 103 318 114 157 11 218 38 178 78 -5 5 -12 34 -15 64 -6 65 13 108 68 152 34 27 44 30 110 29 50 -1 96 -9 147 -26 91 -32 118 -32 148 -4 27 25 29 57 8 98 -17 34 -37 46 -106 66 l-49 15 0 49 c0 44 7 56 32 59 4 1 15 -7 25 -18z m248 -30 c0 -18 -7 -26 -27 -32 -39 -10 -58 14 -32 42 25 27 59 21 59 -10z m1988 -163 c18 -1 50 -3 73 -4 26 -1 80 -22 159 -63 280 -145 485 -317 627 -526 45 -68 83 -164 69 -178 -15 -15 -62 30 -155 145 -119 149 -396 366 -532 418 -85 31 -194 26 -252 -13 -80 -52 -122 -151 -122 -289 0 -37 -4 -69 -9 -72 -15 -10 -39 18 -54 64 -39 116 -31 203 31 344 19 44 37 97 40 118 3 28 15 48 46 75 l41 38 3 -28 c3 -23 8 -27 35 -29z m74 -535 c10 -12 9 -22 -2 -44 -8 -15 -15 -34 -15 -41 0 -7 -7 -22 -15 -33 -15 -19 -16 -19 -37 2 -19 19 -20 26 -10 48 7 14 12 38 12 54 0 15 3 31 7 34 10 10 46 -2 60 -20z m200 -127 c3 -3 25 -6 48 -6 27 0 47 -6 56 -16 11 -14 10 -19 -11 -36 -20 -16 -34 -19 -74 -14 -27 3 -54 10 -60 16 -5 5 -20 10 -33 10 -26 0 -30 21 -8 43 14 14 69 17 82 3z m360 -15 c90 -45 241 -230 308 -375 102 -220 105 -480 7 -672 -36 -71 -101 -119 -232 -171 -14 -6 -58 -16 -98 -23 -128 -23 -251 12 -338 96 -44 43 -94 131 -94 167 0 11 13 23 33 32 47 19 52 29 67 120 22 130 68 211 143 249 17 10 47 28 66 42 19 13 42 24 51 24 10 0 23 6 29 14 7 8 20 12 30 9 16 -4 21 4 30 47 6 28 11 73 11 100 0 42 3 50 18 50 42 0 72 -67 72 -161 0 -129 -62 -214 -200 -269 -80 -32 -156 -96 -147 -123 2 -8 27 -12 67 -12 54 0 64 -3 70 -20 4 -12 15 -27 24 -34 19 -16 21 -85 3 -121 -7 -14 -22 -26 -34 -28 -32 -5 -70 -49 -57 -69 13 -20 64 -24 84 -7 9 7 24 13 35 12 11 0 36 6 55 12 19 7 48 17 63 23 38 13 69 69 118 217 57 171 68 223 69 311 1 214 -136 381 -413 504 -43 19 -58 30 -55 43 8 43 140 52 215 13z m-605 -141 c14 -11 28 -32 31 -48 4 -18 26 -45 65 -77 55 -46 82 -88 82 -128 0 -26 22 -67 37 -67 8 0 13 11 13 29 0 30 30 68 128 167 41 41 47 44 98 44 42 0 56 -4 61 -17 4 -11 -1 -22 -15 -31 -15 -10 -22 -25 -22 -47 0 -26 -12 -45 -59 -94 -34 -35 -78 -69 -105 -80 -32 -14 -46 -26 -46 -40 0 -11 -6 -32 -14 -48 -7 -15 -21 -46 -31 -68 -45 -106 -68 -134 -100 -122 -14 6 -16 14 -10 50 4 23 14 51 21 62 20 29 17 47 -15 92 -35 48 -61 120 -61 168 0 38 -20 64 -67 89 -47 24 -72 58 -74 101 -5 77 32 105 83 65z m116 -728 c2 -7 -3 -12 -12 -12 -9 0 -16 7 -16 16 0 17 22 14 28 -4z m-2662 -47 c4 -8 12 -15 18 -15 7 0 21 -6 31 -14 16 -12 18 -18 8 -37 -6 -13 -14 -32 -17 -42 -8 -25 -40 -17 -44 11 -2 13 -12 28 -23 35 -18 11 -26 56 -12 70 11 12 33 7 39 -8z m384 -968 c0 -7 -5 -18 -12 -25 -7 -7 -18 -12 -25 -12 -19 0 -16 27 5 39 23 14 32 13 32 -2z m170 -47 c0 -11 -7 -20 -15 -20 -8 0 -15 9 -15 20 0 11 7 20 15 20 8 0 15 -9 15 -20z m-232 -85 c1 -33 7 -70 14 -82 9 -19 7 -25 -13 -42 -13 -11 -30 -20 -36 -21 -20 0 -43 67 -43 125 0 75 6 87 44 83 31 -3 31 -4 34 -63z m268 34 c10 -18 -13 -32 -40 -25 -37 9 -34 36 3 36 17 0 33 -5 37 -11z m-410 -406 c18 -24 17 -43 -1 -43 -8 0 -15 5 -15 10 0 6 -9 10 -20 10 -22 0 -28 25 -7 33 22 9 30 7 43 -10z"/>
 <path d="M5370 4780 c-8 -5 -23 -11 -33 -14 -10 -3 -15 -10 -12 -16 14 -23 85 -2 85 25 0 17 -17 19 -40 5z"/>
 <path d="M5196 4401 c-11 -17 5 -39 30 -44 28 -5 30 0 8 31 -16 23 -29 28 -38 13z"/>
 <path d="M5800 8993 c0 -5 44 -33 98 -64 53 -31 149 -86 212 -124 63 -37 130 -76 147 -86 18 -10 61 -36 95 -57 35 -22 175 -106 311 -187 185 -110 253 -146 270 -141 35 8 77 59 84 99 6 39 19 30 -137 99 -80 36 -283 139 -355 180 -189 109 -426 262 -433 280 -5 10 -292 11 -292 1z"/>
 <path d="M6206 8991 c5 -5 39 -26 77 -46 l67 -36 0 26 c0 14 5 35 10 46 10 18 7 19 -77 19 -54 0 -83 -4 -77 -9z"/>
 <path d="M6470 8991 c0 -6 -25 -28 -56 -50 l-56 -40 44 -22 c52 -26 162 -85 203 -109 17 -9 71 -39 120 -65 50 -27 125 -68 169 -92 43 -23 80 -43 82 -43 3 0 22 -11 44 -25 22 -14 47 -25 55 -25 16 0 475 455 475 471 0 5 -237 9 -540 9 -332 0 -540 -4 -540 -9z"/>
 <path d="M3584 7388 c-4 -6 0 -16 9 -23 10 -7 17 -17 17 -24 0 -14 25 -14 52 0 20 11 20 11 -3 35 -24 25 -63 32 -75 12z"/>
 <path d="M6169 6184 c-23 -48 -21 -58 21 -114 22 -29 40 -19 22 11 -15 23 -8 55 13 63 22 8 19 63 -4 76 -28 15 -29 14 -52 -36z"/>
 <path d="M6345 5849 c-10 -15 1 -23 20 -15 9 3 13 10 10 16 -8 13 -22 13 -30 -1z"/>
 <path d="M6430 5800 c0 -5 5 -10 10 -10 6 0 10 5 10 10 0 6 -4 10 -10 10 -5 0 -10 -4 -10 -10z"/>
 <path d="M6340 5700 c0 -13 5 -20 13 -17 6 2 12 10 12 17 0 7 -6 15 -12 18 -8 2 -13 -5 -13 -18z"/>
 <path d="M6384 5593 c4 -16 11 -48 15 -73 7 -45 36 -100 52 -100 20 0 1 100 -34 178 -15 33 -41 29 -33 -5z"/>
 <path d="M6260 5515 c-10 -12 -10 -18 0 -30 15 -18 30 -11 30 15 0 26 -15 33 -30 15z"/>
 <path d="M6640 5361 c0 -6 5 -13 10 -16 6 -3 10 -17 10 -30 0 -13 10 -31 22 -40 19 -13 21 -18 11 -34 -10 -16 -9 -28 8 -65 30 -69 49 -61 49 20 0 58 -2 67 -20 71 -16 4 -20 12 -18 37 2 24 -2 33 -19 41 -13 5 -23 13 -23 17 0 5 -7 8 -15 8 -8 0 -15 -4 -15 -9z"/>
 <path d="M6285 5280 c-3 -5 -3 -16 1 -22 5 -7 8 -31 9 -53 0 -46 28 -58 33 -15 2 14 8 29 13 35 14 14 11 23 -11 30 -11 3 -20 13 -20 21 0 16 -16 19 -25 4z"/>
 <path d="M6320 5110 c0 -7 3 -10 7 -7 3 4 3 10 0 14 -4 3 -7 0 -7 -7z"/>
 <path d="M6320 5040 c0 -5 6 -10 13 -10 35 0 60 -63 36 -87 -9 -9 -8 -21 5 -47 9 -20 20 -36 24 -36 15 0 32 41 26 64 -4 18 -1 25 15 29 31 8 16 38 -18 35 -21 -2 -29 3 -40 30 -11 23 -21 32 -38 32 -13 0 -23 -4 -23 -10z"/>
 <path d="M6629 5004 c-10 -12 -10 -20 -1 -35 10 -15 9 -23 0 -39 -16 -26 -7 -32 25 -17 16 7 25 18 22 26 -3 7 0 20 6 27 9 11 8 19 -6 34 -22 24 -29 25 -46 4z"/>
 <path d="M6532 4798 c5 -32 28 -35 28 -4 0 17 -5 26 -16 26 -10 0 -14 -7 -12 -22z"/>
 <path d="M6801 4794 c0 -11 3 -14 6 -6 3 7 2 16 -1 19 -3 4 -6 -2 -5 -13z"/>
 <path d="M6800 4750 c0 -7 3 -10 7 -7 3 4 3 10 0 14 -4 3 -7 0 -7 -7z"/>
 <path d="M6500 4740 c0 -7 3 -10 7 -7 3 4 3 10 0 14 -4 3 -7 0 -7 -7z"/>
 <path d="M6391 4706 c-12 -14 -12 -22 -3 -37 7 -10 12 -35 12 -54 0 -38 22 -57 43 -36 8 8 6 21 -8 48 -11 21 -22 51 -25 67 -5 27 -6 28 -19 12z"/>
 <path d="M6540 4705 c0 -8 5 -15 10 -15 6 0 16 -11 22 -25 13 -29 28 -33 28 -7 0 17 -38 62 -53 62 -4 0 -7 -7 -7 -15z"/>
 <path d="M6820 4700 c0 -7 3 -10 7 -7 3 4 3 10 0 14 -4 3 -7 0 -7 -7z"/>
 <path d="M6650 4630 c-13 -8 -12 -13 7 -32 20 -20 23 -20 29 -4 9 24 -16 48 -36 36z"/>
 <path d="M4250 4497 c0 -8 12 -24 26 -38 22 -20 25 -21 16 -4 -6 11 -13 28 -16 38 -6 20 -26 23 -26 4z"/>
 <path d="M4070 4469 c0 -18 2 -19 15 -9 8 7 15 16 15 21 0 5 -7 9 -15 9 -9 0 -15 -9 -15 -21z"/>
 <path d="M6698 4435 c-13 -24 -13 -31 1 -61 21 -47 37 -37 33 22 -5 61 -16 74 -34 39z"/>
 <path d="M3980 4383 c1 -28 25 -71 35 -61 3 3 3 24 -1 47 -8 47 -34 58 -34 14z"/>
 <path d="M6175 4379 c-4 -6 -5 -13 -2 -16 7 -7 27 6 27 18 0 12 -17 12 -25 -2z"/>
 <path d="M6726 4322 c-3 -6 -1 -14 5 -17 15 -10 25 3 12 16 -7 7 -13 7 -17 1z"/>
 <path d="M6114 4277 c-4 -11 -1 -22 10 -30 15 -11 15 -15 -3 -52 -40 -84 -35 -139 10 -99 12 11 17 24 13 37 -6 17 0 36 27 89 15 29 11 51 -7 44 -10 -4 -22 1 -30 11 -12 17 -13 17 -20 0z"/>
 <path d="M7113 4275 c-9 -24 4 -30 34 -16 22 10 24 14 12 22 -21 13 -39 11 -46 -6z"/>
 <path d="M6620 4270 c0 -5 5 -10 10 -10 6 0 10 5 10 10 0 6 -4 10 -10 10 -5 0 -10 -4 -10 -10z"/>
 <path d="M6822 4243 c2 -10 10 -18 18 -18 22 0 18 29 -3 33 -14 3 -18 -1 -15 -15z"/>
 <path d="M6640 4205 c0 -25 4 -35 15 -35 21 0 29 24 15 49 -16 32 -30 25 -30 -14z"/>
 <path d="M4523 4200 c-40 -36 -45 -86 -13 -115 11 -10 20 -30 20 -44 0 -27 14 -51 65 -114 33 -41 55 -35 55 14 0 30 -15 45 -42 41 -13 -2 -16 4 -16 27 1 16 -6 40 -14 53 -13 19 -14 34 -6 81 10 56 6 87 -9 87 -4 0 -23 -14 -40 -30z"/>
 <path d="M4273 4143 c-7 -15 -13 -43 -13 -63 0 -20 -5 -41 -11 -47 -8 -8 -6 -24 5 -57 20 -60 20 -66 -3 -66 -11 0 -23 -5 -27 -11 -11 -18 12 -31 45 -24 34 7 49 38 31 60 -7 8 -10 24 -7 35 3 11 2 22 -2 25 -16 9 3 71 32 107 25 31 28 40 17 53 -20 24 -53 18 -67 -12z"/>
 <path d="M4812 4148 c-18 -18 -14 -38 7 -38 22 0 45 25 36 40 -8 13 -28 13 -43 -2z"/>
 <path d="M6450 4141 c0 -11 -4 -23 -10 -26 -24 -15 5 -65 37 -65 9 0 8 59 -1 88 -9 27 -26 29 -26 3z"/>
 <path d="M4079 4124 c-6 -16 -13 -40 -15 -53 -1 -14 -10 -28 -18 -33 -16 -9 -22 -38 -8 -38 23 0 92 64 102 96 14 41 14 40 -22 49 -24 6 -29 3 -39 -21z"/>
 <path d="M7020 4112 c0 -5 9 -17 19 -26 11 -10 21 -30 23 -44 3 -26 32 -52 44 -40 7 8 4 17 -29 73 -22 36 -57 60 -57 37z"/>
 <path d="M6047 4083 c-13 -12 -7 -33 8 -33 8 0 15 9 15 20 0 20 -11 26 -23 13z"/>
 <path d="M5860 4040 c-15 -28 -2 -70 21 -70 16 0 19 8 19 45 0 49 -20 62 -40 25z"/>
 <path d="M6902 4034 c-25 -17 -30 -54 -7 -54 10 0 15 -11 15 -35 0 -35 12 -46 26 -23 10 16 7 109 -3 119 -5 5 -19 2 -31 -7z"/>
 <path d="M4896 3953 c-4 -9 5 -37 19 -64 14 -27 25 -60 25 -74 0 -32 18 -33 26 -1 9 36 -4 94 -28 126 -25 34 -33 37 -42 13z"/>
 <path d="M6600 3953 c0 -20 18 -43 33 -43 4 0 7 12 5 27 -4 32 -38 46 -38 16z"/>
 <path d="M7110 3904 c-9 -10 -10 -18 -2 -26 12 -12 32 -2 32 17 0 21 -16 26 -30 9z"/>
 <path d="M4490 3884 c0 -9 -9 -32 -21 -51 -17 -27 -19 -36 -8 -49 19 -23 -11 -49 -48 -39 -32 8 -39 5 -35 -13 2 -8 -1 -19 -6 -25 -23 -29 -21 -63 4 -100 31 -46 56 -50 48 -8 -5 23 -2 32 16 41 16 8 25 8 35 0 9 -8 15 -8 20 0 4 6 -9 17 -29 25 -41 18 -41 17 -20 51 10 15 23 23 32 19 17 -6 41 21 42 48 0 9 5 26 11 36 9 14 9 25 -2 50 -15 33 -39 42 -39 15z"/>
 <path d="M6604 3879 c-8 -14 16 -59 32 -59 18 0 28 38 14 55 -15 18 -36 19 -46 4z"/>
 <path d="M6366 3873 c-14 -14 -4 -44 21 -68 15 -14 31 -25 35 -25 13 0 9 67 -4 77 -19 15 -45 22 -52 16z"/>
 <path d="M6782 3855 c7 -16 15 -22 21 -16 13 13 1 41 -17 41 -13 0 -14 -4 -4 -25z"/>
 <path d="M6910 3873 c1 -19 19 -35 34 -30 26 10 19 37 -9 37 -14 0 -25 -3 -25 -7z"/>
 <path d="M6065 3860 c-8 -13 4 -50 16 -50 5 0 9 14 9 30 0 30 -13 40 -25 20z"/>
 <path d="M5892 3806 c1 -10 8 -17 13 -17 15 1 12 24 -3 29 -9 3 -13 -2 -10 -12z"/>
 <path d="M4172 3788 c3 -7 13 -15 22 -16 12 -3 17 1 14 10 -3 7 -13 15 -22 16 -12 3 -17 -1 -14 -10z"/>
 <path d="M6790 3781 c0 -11 4 -22 9 -25 12 -8 34 21 26 34 -11 17 -35 11 -35 -9z"/>
 <path d="M4025 3780 c-4 -6 -2 -17 4 -23 15 -19 17 -85 3 -99 -17 -17 -15 -74 4 -128 16 -46 81 -123 96 -114 4 3 12 -5 17 -18 5 -13 18 -32 30 -42 11 -11 21 -27 21 -38 0 -11 7 -18 20 -18 19 0 21 5 18 67 -3 66 -4 69 -40 92 -25 16 -38 32 -38 46 0 12 -11 37 -25 56 -14 19 -32 48 -40 66 -8 17 -19 34 -24 37 -5 4 -7 21 -4 40 3 19 1 36 -6 40 -6 4 -11 16 -11 27 0 20 -15 26 -25 9z"/>
 <path d="M5090 3770 c0 -11 -8 -24 -17 -27 -10 -4 -21 -11 -25 -17 -11 -15 -7 -106 4 -112 16 -10 58 38 58 65 0 13 9 35 21 47 18 19 19 25 7 43 -17 27 -48 28 -48 1z"/>
 <path d="M5523 3743 c4 -3 10 -3 14 0 3 4 0 7 -7 7 -7 0 -10 -3 -7 -7z"/>
 <path d="M6155 3728 c4 -13 9 -38 12 -55 6 -37 6 -37 34 -23 27 15 25 64 -3 84 -33 24 -52 21 -43 -6z"/>
 <path d="M4672 3718 c-15 -15 -16 -81 -1 -76 13 4 39 75 31 83 -8 8 -17 6 -30 -7z"/>
 <path d="M5912 3714 c1 -9 9 -19 16 -22 9 -3 13 2 10 14 -1 9 -9 19 -16 22 -9 3 -13 -2 -10 -14z"/>
 <path d="M5526 3688 c-15 -23 -16 -23 -31 -4 -8 11 -18 16 -22 13 -4 -4 -1 -13 5 -19 7 -7 12 -20 12 -30 0 -13 8 -18 25 -18 15 0 25 6 25 15 0 8 9 20 20 27 11 7 20 18 20 25 0 21 -36 15 -54 -9z"/>
 <path d="M6384 3649 c-9 -15 12 -33 30 -26 9 4 16 13 16 22 0 17 -35 21 -46 4z"/>
 <path d="M3870 3625 c0 -8 -17 -19 -42 -25 -28 -8 -65 -33 -115 -78 -62 -57 -73 -72 -73 -100 0 -67 58 -138 104 -126 22 5 25 10 20 28 -4 11 -8 35 -9 51 0 17 -6 40 -13 52 -26 47 -6 89 27 59 23 -21 55 -118 56 -168 1 -30 -2 -38 -17 -38 -11 0 -15 -5 -12 -14 6 -15 67 -38 130 -51 35 -7 63 -33 90 -85 29 -57 29 -10 0 51 -28 57 -33 108 -14 127 14 14 3 28 -27 34 -14 2 -21 12 -23 33 -2 17 -13 50 -24 75 -12 25 -22 63 -23 85 -1 22 -3 55 -4 73 -1 21 -6 32 -16 32 -8 0 -15 -7 -15 -15z"/>
 <path d="M4778 3606 c-9 -9 -15 -23 -12 -31 13 -32 39 -6 32 31 -3 17 -4 17 -20 0z"/>
 <path d="M4472 3564 c4 -21 22 -23 26 -1 2 10 -3 17 -13 17 -10 0 -15 -6 -13 -16z"/>
 <path d="M4420 3541 c0 -12 5 -21 10 -21 6 0 10 6 10 14 0 8 -4 18 -10 21 -5 3 -10 -3 -10 -14z"/>
 <path d="M5877 3543 c-13 -20 -11 -112 3 -133 7 -12 12 -12 22 -2 6 6 20 12 30 12 23 0 23 5 -3 40 -12 16 -22 41 -23 56 -1 27 -19 43 -29 27z"/>
 <path d="M6202 3543 c-24 -5 -65 -60 -56 -75 8 -12 24 1 34 27 6 17 20 25 51 30 29 5 38 10 28 16 -15 9 -19 9 -57 2z"/>
 <path d="M6376 3492 c-3 -6 -1 -14 5 -17 15 -10 25 3 12 16 -7 7 -13 7 -17 1z"/>
 <path d="M5420 3478 c0 -25 35 -48 73 -48 27 0 37 4 37 16 0 12 -6 15 -21 11 -11 -3 -35 3 -55 15 -27 16 -34 17 -34 6z"/>
 <path d="M5121 3457 c-12 -15 -5 -27 16 -27 7 0 13 9 13 20 0 23 -13 26 -29 7z"/>
 <path d="M6428 3453 c-32 -5 -33 -10 -13 -49 8 -16 15 -37 15 -46 0 -22 23 -23 40 -3 10 12 10 18 0 30 -10 12 -10 21 -1 41 17 38 20 36 -41 27z"/>
 <path d="M4618 3431 c-20 -20 -24 -41 -8 -41 15 0 80 -65 94 -92 10 -19 59 -55 79 -57 28 -3 -30 109 -66 127 -15 7 -27 19 -27 26 0 12 -41 57 -51 55 -2 0 -12 -8 -21 -18z"/>
 <path d="M3305 3410 c3 -5 8 -10 11 -10 2 0 4 5 4 10 0 6 -5 10 -11 10 -5 0 -7 -4 -4 -10z"/>
 <path d="M4892 3378 c23 -42 48 -61 48 -36 0 23 -39 78 -56 78 -13 0 -12 -7 8 -42z"/>
 <path d="M6632 3389 c2 -7 10 -15 17 -17 8 -3 12 1 9 9 -2 7 -10 15 -17 17 -8 3 -12 -1 -9 -9z"/>
 <path d="M3266 3322 c-26 -38 -35 -82 -16 -82 5 0 22 -18 36 -40 15 -22 32 -40 38 -40 19 0 36 -16 40 -37 4 -19 55 -78 61 -71 1 2 10 17 19 35 17 35 6 54 -19 33 -12 -10 -22 -5 -55 28 -33 33 -40 46 -40 79 0 21 -5 44 -11 50 -8 8 -8 17 1 33 13 25 7 50 -13 50 -8 0 -26 -17 -41 -38z"/>
 <path d="M3461 3331 c-16 -29 -15 -174 1 -169 14 5 28 52 35 119 3 33 1 49 -10 58 -13 10 -17 9 -26 -8z"/>
 <path d="M4370 3295 c0 -15 44 -95 60 -110 22 -20 34 -6 36 43 1 27 -3 32 -22 32 -13 0 -28 9 -34 20 -9 17 -40 29 -40 15z"/>
 <path d="M6610 3290 c0 -5 12 -10 28 -10 21 0 24 2 12 10 -20 13 -40 13 -40 0z"/>
 <path d="M5427 3283 c-12 -11 -7 -34 12 -59 l19 -24 5 28 c8 40 -16 76 -36 55z"/>
 <path d="M6710 3259 c0 -12 82 -109 93 -109 4 0 7 15 7 34 0 25 -5 36 -19 41 -10 3 -26 14 -36 25 -19 22 -45 27 -45 9z"/>
 <path d="M5154 3238 c-11 -17 29 -48 54 -42 12 4 22 9 22 13 0 13 -70 39 -76 29z"/>
 <path d="M5613 3239 c-27 -10 -30 -27 -5 -36 39 -14 71 -45 74 -71 2 -19 9 -28 26 -30 28 -4 28 12 3 72 -23 52 -63 79 -98 65z"/>
 <path d="M4986 3173 c15 -21 29 -39 30 -41 5 -7 44 19 44 28 0 6 -11 10 -24 10 -15 0 -26 7 -29 20 -3 12 -14 20 -27 20 -22 0 -22 -1 6 -37z"/>
 <path d="M5243 3155 c-3 -9 -4 -17 -2 -18 2 -2 21 -10 42 -20 35 -16 37 -16 37 2 0 39 -64 69 -77 36z"/>
 <path d="M2855 3150 c-7 -12 2 -30 16 -30 5 0 9 9 9 20 0 21 -15 27 -25 10z"/>
 <path d="M2905 3110 c-6 -10 42 -59 58 -60 17 0 6 42 -13 47 -11 3 -20 9 -20 14 0 12 -17 11 -25 -1z"/>
 <path d="M4785 3100 c-8 -14 24 -45 34 -34 4 5 0 17 -10 26 -11 10 -21 13 -24 8z"/>
 <path d="M4550 3081 c-12 -8 -6 -18 29 -50 65 -60 77 -55 37 14 -24 42 -41 51 -66 36z"/>
 <path d="M4306 3064 c-4 -10 1 -18 14 -21 10 -3 22 -14 26 -25 4 -15 9 -17 17 -8 9 8 8 15 -5 24 -10 7 -18 21 -18 30 0 21 -26 21 -34 0z"/>
 <path d="M4854 3068 c-8 -12 21 -38 43 -38 16 0 17 22 1 38 -15 15 -35 15 -44 0z"/>
 <path d="M3850 3060 c0 -5 4 -10 9 -10 5 0 16 -3 25 -6 11 -4 16 -1 16 10 0 10 -9 16 -25 16 -14 0 -25 -4 -25 -10z"/>
 <path d="M5033 3033 c-9 -3 -7 -10 7 -25 11 -12 23 -17 31 -12 7 4 28 7 47 6 24 -2 33 1 30 10 -3 7 -18 13 -34 14 -16 1 -38 4 -49 7 -11 3 -25 3 -32 0z"/>
 <path d="M3640 2977 c0 -37 6 -48 38 -80 41 -40 66 -47 76 -21 4 11 -5 27 -27 48 -19 17 -39 46 -46 64 -19 47 -41 42 -41 -11z"/>
 <path d="M5169 3017 c0 -1 -2 -15 -3 -30 -1 -25 4 -31 50 -53 34 -16 69 -24 103 -24 49 0 52 2 49 23 -2 18 -12 23 -53 30 -27 5 -58 13 -67 18 -10 5 -25 9 -33 9 -8 0 -15 4 -15 9 0 8 -28 24 -31 18z"/>
 <path d="M6777 3013 c-10 -9 -8 -43 2 -43 5 0 14 7 21 15 17 21 -4 48 -23 28z"/>
 <path d="M3361 2997 c-12 -15 -5 -27 16 -27 7 0 13 9 13 20 0 23 -13 26 -29 7z"/>
 <path d="M3130 2981 c0 -11 4 -21 9 -21 18 0 21 18 6 30 -13 10 -15 9 -15 -9z"/>
 <path d="M2932 2969 c-21 -8 -28 -32 -9 -30 4 1 13 1 21 1 15 0 30 27 18 34 -4 2 -18 0 -30 -5z"/>
 <path d="M4218 2963 c-1 -10 -5 -43 -7 -65 0 -10 -8 -18 -16 -18 -44 0 9 -45 66 -57 41 -8 101 -40 112 -60 12 -20 37 2 37 32 0 23 -17 35 -48 35 -19 0 -122 108 -122 128 0 13 -19 17 -22 5z"/>
 <path d="M3450 2940 c0 -13 5 -20 13 -17 6 2 12 10 12 17 0 7 -6 15 -12 18 -8 2 -13 -5 -13 -18z"/>
 <path d="M3976 2939 c12 -13 20 -16 22 -9 3 7 -2 16 -9 21 -25 16 -32 9 -13 -12z"/>
 <path d="M6353 2883 c-21 -8 -15 -29 13 -48 45 -29 72 -3 34 35 -21 21 -26 22 -47 13z"/>
 <path d="M4916 2872 c-2 -4 -2 -13 2 -19 10 -14 79 -36 92 -28 17 10 -8 35 -36 35 -12 0 -26 5 -29 10 -7 12 -22 13 -29 2z"/>
 <path d="M3917 2814 c-14 -14 8 -35 49 -45 23 -6 50 -20 60 -30 19 -22 44 -25 44 -6 -1 25 -31 51 -82 69 -58 20 -62 21 -71 12z"/>
 <path d="M4475 2810 c-5 -7 10 -39 32 -69 2 -3 10 4 17 15 14 18 15 18 21 2 9 -22 35 -24 35 -3 0 8 -7 15 -15 15 -9 0 -20 11 -25 25 -10 26 -52 36 -65 15z"/>
 <path d="M6263 2773 c4 -3 10 -3 14 0 3 4 0 7 -7 7 -7 0 -10 -3 -7 -7z"/>
 <path d="M2956 2745 c-3 -13 -9 -53 -12 -87 -5 -43 -13 -70 -27 -85 -11 -13 -17 -26 -13 -30 4 -5 18 4 29 18 12 14 30 29 40 32 10 4 17 17 17 31 0 14 5 28 10 31 6 3 10 26 10 50 0 34 -5 47 -19 55 -27 14 -28 13 -35 -15z"/>
 <path d="M3190 2735 c0 -8 7 -15 15 -15 8 0 15 7 15 15 0 8 -7 15 -15 15 -8 0 -15 -7 -15 -15z"/>
 <path d="M5413 2738 c-40 -19 -28 -36 25 -36 52 1 74 12 65 34 -6 17 -58 18 -90 2z"/>
 <path d="M4900 2725 c0 -8 7 -15 15 -15 9 0 18 -12 22 -30 6 -34 10 -36 34 -14 23 21 14 44 -17 44 -14 0 -27 7 -30 15 -4 8 -10 15 -15 15 -5 0 -9 -7 -9 -15z"/>
 <path d="M4650 2712 c0 -4 5 -13 12 -20 18 -18 28 -15 28 8 0 13 -7 20 -20 20 -11 0 -20 -4 -20 -8z"/>
 <path d="M4712 2668 c-8 -8 -9 -15 -1 -25 21 -24 2 -43 -43 -43 -27 0 -39 -3 -32 -10 10 -10 240 -18 250 -8 3 4 -12 14 -33 24 -21 10 -57 31 -79 46 -48 32 -46 32 -62 16z"/>
 <path d="M2487 2663 c-14 -13 -6 -20 18 -15 14 2 22 8 19 13 -6 11 -28 12 -37 2z"/>
 <path d="M3153 2602 c-44 -3 -57 -18 -25 -28 9 -3 29 -11 44 -18 17 -10 29 -11 36 -4 14 14 33 1 31 -20 -5 -52 2 -72 25 -78 26 -6 76 20 76 40 0 24 -61 85 -93 91 -17 4 -36 10 -42 14 -5 3 -29 5 -52 3z"/>
 <path d="M5325 2580 c-8 -12 20 -24 35 -15 6 3 8 11 5 16 -8 12 -32 12 -40 -1z"/>
 <path d="M3712 2548 c2 -7 23 -23 47 -35 23 -12 49 -27 57 -34 28 -23 28 2 -1 29 -34 31 -71 52 -92 52 -8 0 -13 -6 -11 -12z"/>
 <path d="M4470 2552 c0 -13 36 -43 43 -36 9 9 -16 44 -30 44 -7 0 -13 -4 -13 -8z"/>
 <path d="M5713 2498 c-51 -38 -57 -61 -14 -48 16 4 39 18 51 30 12 12 28 19 36 16 11 -4 14 -1 12 12 -5 28 -40 24 -85 -10z"/>
 <path d="M4345 2500 c3 -5 8 -10 11 -10 2 0 4 5 4 10 0 6 -5 10 -11 10 -5 0 -7 -4 -4 -10z"/>
 <path d="M5135 2500 c3 -5 8 -10 11 -10 2 0 4 5 4 10 0 6 -5 10 -11 10 -5 0 -7 -4 -4 -10z"/>
 <path d="M3536 2485 c-6 -17 17 -31 34 -20 8 5 8 11 -1 21 -15 18 -25 18 -33 -1z"/>
 <path d="M3980 2480 c0 -4 8 -14 18 -22 20 -18 65 -7 57 14 -5 13 -75 20 -75 8z"/>
 <path d="M4560 2482 c0 -13 62 -42 107 -49 53 -9 39 19 -18 34 -24 7 -54 15 -66 19 -13 3 -23 2 -23 -4z"/>
 <path d="M3590 2460 c0 -12 59 -50 78 -50 26 0 10 31 -24 45 -43 18 -54 19 -54 5z"/>
 <path d="M5092 2433 c5 -26 38 -29 38 -4 0 15 -6 21 -21 21 -14 0 -19 -5 -17 -17z"/>
 <path d="M5850 2409 c-13 -24 -8 -34 15 -26 16 7 21 47 5 47 -5 0 -14 -9 -20 -21z"/>
 <path d="M4035 2411 c-3 -5 3 -16 13 -23 10 -7 21 -21 25 -30 7 -19 22 -24 31 -9 6 8 -45 71 -57 71 -3 0 -8 -4 -12 -9z"/>
 <path d="M5443 2400 c-24 -10 -43 -21 -43 -24 0 -8 104 6 115 16 6 6 5 12 -5 18 -19 13 -18 13 -67 -10z"/>
 <path d="M4790 2350 c0 -21 4 -30 13 -27 6 2 12 14 12 27 0 13 -6 25 -12 28 -9 2 -13 -7 -13 -28z"/>
 <path d="M4366 2361 c-3 -5 0 -13 7 -18 18 -13 80 -10 84 4 7 19 -27 29 -38 12 -6 -11 -11 -11 -21 -1 -14 14 -25 15 -32 3z"/>
 <path d="M3880 2335 c0 -8 9 -15 20 -15 11 0 20 7 20 15 0 8 -9 15 -20 15 -11 0 -20 -7 -20 -15z"/>
 <path d="M3186 2289 c-21 -41 -5 -62 19 -26 12 18 14 31 7 43 -8 14 -12 12 -26 -17z"/>
 <path d="M3947 2313 c-20 -19 11 -93 40 -93 11 0 12 8 7 38 -9 51 -29 74 -47 55z"/>
 <path d="M4137 2314 c-11 -11 -8 -49 4 -61 8 -8 7 -17 -3 -32 -9 -14 -10 -25 -3 -35 57 -80 75 -109 75 -123 0 -20 63 -123 89 -147 19 -17 21 -18 27 -2 4 10 2 22 -5 29 -6 6 -11 21 -11 34 0 13 -11 33 -24 44 -21 18 -23 24 -13 41 11 17 7 24 -30 56 -32 29 -42 46 -46 77 -11 83 -23 120 -38 123 -8 1 -18 0 -22 -4z"/>
 <path d="M6044 2305 c-3 -8 -3 -19 1 -25 11 -18 25 -11 25 15 0 27 -17 34 -26 10z"/>
 <path d="M4580 2295 c-17 -20 -66 -43 -115 -53 -30 -6 -40 -13 -40 -27 0 -14 6 -19 20 -17 11 2 38 5 61 7 55 4 144 60 144 92 0 18 -54 17 -70 -2z"/>
 <path d="M5745 2275 c-22 -7 -32 -13 -23 -14 9 -1 20 -10 23 -21 5 -16 15 -20 55 -20 27 0 52 5 55 10 3 6 24 10 46 10 33 0 40 3 37 17 -6 32 -119 43 -193 18z"/>
 <path d="M5665 2270 c-9 -15 4 -30 20 -23 8 3 15 9 15 13 0 12 -29 20 -35 10z"/>
 <path d="M2217 2263 c-4 -3 -7 -69 -7 -145 0 -137 0 -139 24 -148 13 -5 26 -14 28 -21 6 -17 28 -2 28 19 0 9 -9 28 -20 42 -15 19 -20 41 -20 87 0 34 5 65 10 68 13 8 13 61 0 86 -11 19 -31 25 -43 12z"/>
 <path d="M3070 2243 c0 -5 11 -9 25 -9 14 -1 25 2 25 7 0 5 -11 9 -25 9 -14 0 -25 -3 -25 -7z"/>
 <path d="M3285 2240 c-3 -5 -1 -10 4 -10 6 0 11 5 11 10 0 6 -2 10 -4 10 -3 0 -8 -4 -11 -10z"/>
 <path d="M6197 2236 c-4 -9 -1 -19 6 -21 35 -13 146 -38 173 -39 17 0 38 -7 47 -14 18 -15 37 -8 37 13 0 8 -18 19 -42 25 -24 7 -56 18 -73 25 -16 8 -55 17 -86 20 -47 6 -57 4 -62 -9z"/>
 <path d="M3051 2207 c-14 -14 -14 -60 0 -74 8 -8 19 -6 40 4 24 12 29 21 27 41 -3 29 -48 48 -67 29z"/>
 <path d="M4802 2208 c-13 -13 -16 -38 -6 -38 8 0 33 32 34 43 0 11 -15 8 -28 -5z"/>
 <path d="M3326 2202 c-2 -4 -1 -14 5 -22 5 -8 9 -30 9 -49 0 -30 2 -33 23 -27 12 3 28 6 35 6 17 0 15 25 -4 41 -9 7 -20 23 -25 36 -8 22 -33 31 -43 15z"/>
 <path d="M5960 2175 c0 -9 5 -15 11 -13 6 2 11 8 11 13 0 5 -5 11 -11 13 -6 2 -11 -4 -11 -13z"/>
 <path d="M6495 2170 c-4 -6 -3 -16 3 -22 6 -6 12 -6 17 2 4 6 3 16 -3 22 -6 6 -12 6 -17 -2z"/>
 <path d="M5740 2130 c0 -5 5 -10 10 -10 6 0 10 5 10 10 0 6 -4 10 -10 10 -5 0 -10 -4 -10 -10z"/>
 <path d="M4820 2096 c-7 -14 -10 -32 -7 -41 10 -25 48 4 45 34 -4 33 -22 37 -38 7z"/>
 <path d="M2965 2070 c-8 -14 -7 -15 23 -25 20 -6 23 -4 20 11 -4 22 -33 31 -43 14z"/>
 <path d="M3272 2054 c1 -9 9 -19 16 -22 9 -3 13 2 10 14 -1 9 -9 19 -16 22 -9 3 -13 -2 -10 -14z"/>
 <path d="M3821 2036 c-7 -8 -11 -30 -9 -48 2 -25 8 -33 23 -33 17 0 20 8 23 48 3 49 -12 63 -37 33z"/>
 <path d="M4945 2010 c-10 -11 -29 -20 -42 -20 -16 0 -23 -6 -23 -20 0 -25 8 -25 86 2 58 20 65 20 81 6 22 -19 73 -32 73 -19 0 6 -15 24 -32 40 -27 25 -42 31 -79 31 -33 0 -51 -6 -64 -20z"/>
 <path d="M4632 1998 c-17 -17 -16 -88 2 -88 10 0 15 15 18 50 3 52 0 58 -20 38z"/>
 <path d="M6670 1951 c-16 -30 -12 -51 9 -51 10 0 21 -9 24 -20 6 -24 39 -27 57 -5 10 13 9 15 -9 15 -16 0 -21 6 -21 28 0 48 -40 70 -60 33z"/>
 <path d="M2965 1950 c-10 -17 12 -37 25 -24 8 8 6 15 -4 23 -10 9 -16 9 -21 1z"/>
 <path d="M5300 1916 c0 -31 5 -34 73 -42 48 -6 58 -4 63 10 10 27 -15 43 -78 51 -57 6 -58 6 -58 -19z"/>
 <path d="M6208 1919 c-22 -12 -24 -62 -3 -79 22 -19 35 -3 35 46 0 46 -4 50 -32 33z"/>
 <path d="M4123 1909 c-25 -25 -4 -69 31 -69 9 0 16 -5 16 -10 0 -6 11 -15 25 -20 14 -5 25 -15 26 -22 2 -21 88 -93 99 -82 27 27 -57 134 -103 134 -15 0 -56 36 -72 64 -8 14 -12 15 -22 5z"/>
 <path d="M2990 1890 c0 -5 5 -10 11 -10 5 0 7 5 4 10 -3 6 -8 10 -11 10 -2 0 -4 -4 -4 -10z"/>
 <path d="M5855 1870 c-7 -12 2 -30 16 -30 12 0 12 27 0 35 -5 3 -12 1 -16 -5z"/>
 <path d="M3935 1850 c-4 -6 -15 -8 -24 -5 -10 3 -30 -1 -44 -8 l-27 -14 23 -12 c24 -13 124 -11 145 3 7 4 12 14 12 22 0 10 -7 13 -24 8 -13 -3 -27 -1 -30 5 -9 14 -23 14 -31 1z"/>
 <path d="M3325 1829 c-10 -15 3 -25 16 -12 7 7 7 13 1 17 -6 3 -14 1 -17 -5z"/>
 <path d="M3613 1807 c-6 -12 -35 -35 -64 -51 -53 -29 -119 -86 -119 -104 0 -15 28 -34 40 -27 5 3 10 15 10 25 0 11 10 22 22 26 13 4 38 22 57 41 18 18 44 36 57 39 25 6 42 43 29 63 -10 17 -21 13 -32 -12z"/>
 <path d="M5002 1808 c6 -18 28 -21 28 -4 0 9 -7 16 -16 16 -9 0 -14 -5 -12 -12z"/>
 <path d="M5210 1799 c0 -6 14 -24 32 -41 28 -26 33 -28 43 -14 10 12 19 14 45 6 19 -5 36 -7 39 -4 8 7 -21 24 -41 24 -10 0 -32 9 -50 20 -36 22 -68 26 -68 9z"/>
 <path d="M2946 1766 c3 -9 11 -16 16 -16 13 0 5 23 -10 28 -7 2 -10 -2 -6 -12z"/>
 <path d="M2520 1760 c0 -7 3 -10 7 -7 3 4 3 10 0 14 -4 3 -7 0 -7 -7z"/>
 <path d="M6442 1739 c-7 -12 -11 -23 -8 -27 7 -6 46 27 46 40 0 16 -25 8 -38 -13z"/>
 <path d="M3040 1730 c-24 -6 -22 -11 12 -23 9 -3 19 0 22 8 7 19 -3 23 -34 15z"/>
 <path d="M4543 1727 c-10 -16 28 -39 44 -26 7 6 13 17 13 23 0 14 -48 17 -57 3z"/>
 <path d="M5405 1732 c-16 -16 -1 -29 33 -28 20 1 36 6 35 11 -2 11 -59 25 -68 17z"/>
 <path d="M4826 1714 c-8 -21 -10 -20 52 -27 41 -5 52 -3 52 8 0 8 -9 15 -19 15 -11 0 -23 5 -26 10 -10 16 -52 11 -59 -6z"/>
 <path d="M4773 1705 c-3 -9 -3 -19 1 -22 8 -9 37 18 30 28 -8 14 -24 11 -31 -6z"/>
 <path d="M4042 1690 c-38 -24 -38 -44 1 -48 19 -2 27 1 27 12 0 8 9 20 20 26 11 6 20 15 20 20 0 16 -33 11 -68 -10z"/>
 <path d="M4653 1703 c-24 -9 -13 -23 16 -23 34 0 49 15 25 24 -18 7 -23 7 -41 -1z"/>
 <path d="M6288 1703 c-31 -4 -41 -11 -60 -44 -15 -27 -28 -39 -44 -39 -13 0 -26 -4 -29 -10 -3 -5 -15 -10 -26 -10 -14 0 -19 -6 -17 -17 5 -26 31 -27 79 -4 24 12 48 21 54 21 6 0 33 19 58 43 46 42 60 69 35 65 -7 -1 -30 -3 -50 -5z"/>
 <path d="M5030 1675 c0 -16 16 -20 24 -6 3 5 -1 11 -9 15 -9 3 -15 0 -15 -9z"/>
 <path d="M5084 1679 c-13 -21 14 -34 41 -19 29 15 29 15 -7 24 -15 3 -30 1 -34 -5z"/>
 <path d="M3062 1659 c2 -6 8 -10 13 -10 5 0 11 4 13 10 2 6 -4 11 -13 11 -9 0 -15 -5 -13 -11z"/>
 <path d="M4601 1593 c2 -29 181 -105 200 -86 6 6 24 7 44 3 33 -8 45 -5 45 11 0 12 -90 50 -101 43 -13 -8 -148 16 -155 27 -6 11 -34 12 -33 2z"/>
 <path d="M3540 1560 c0 -5 -5 -10 -12 -10 -6 0 -26 -11 -45 -26 -33 -25 -41 -50 -24 -82 5 -9 12 -25 15 -34 7 -23 54 -24 63 -2 3 9 1 25 -5 35 -7 10 -12 23 -12 29 0 14 33 50 46 50 6 0 17 6 23 13 8 11 5 16 -15 25 -31 15 -34 15 -34 2z"/>
 <path d="M4140 1560 c-8 -5 -27 -10 -41 -10 -27 0 -46 -24 -29 -35 5 -3 28 -3 52 1 39 6 68 25 68 46 0 11 -32 10 -50 -2z"/>
 <path d="M4990 1566 c0 -3 4 -16 10 -30 7 -20 16 -26 37 -25 44 3 53 0 53 -15 0 -8 9 -17 19 -21 11 -3 22 -12 25 -20 7 -19 30 -19 46 0 14 17 82 20 111 5 14 -8 25 -7 43 5 14 10 40 15 62 13 45 -4 57 17 19 32 -15 6 -53 12 -84 13 -31 1 -62 6 -69 11 -8 5 -18 4 -25 -3 -16 -16 -67 -14 -101 4 -15 8 -32 13 -37 10 -4 -3 -25 1 -45 10 -35 15 -64 19 -64 11z"/>
 <path d="M6013 1553 c-35 -14 12 -47 52 -37 16 4 25 13 25 25 0 15 -7 19 -32 18 -18 0 -39 -3 -45 -6z"/>
 <path d="M3830 1517 c0 -1 -9 -27 -20 -57 -11 -30 -20 -55 -20 -56 0 -5 47 10 57 18 7 6 34 7 62 3 42 -6 52 -4 71 15 24 24 23 53 -2 58 -32 6 -100 -19 -105 -39 -3 -10 -12 -19 -19 -19 -16 0 -19 26 -4 35 16 10 12 45 -5 45 -8 0 -15 -1 -15 -3z"/>
 <path d="M6197 1473 c-11 -10 -8 -63 3 -63 17 0 62 49 55 60 -7 11 -48 14 -58 3z"/>
 <path d="M4061 1438 c-13 -35 35 -79 53 -49 7 11 -22 71 -35 71 -5 0 -14 -10 -18 -22z"/>
 <path d="M4853 1383 c9 -2 17 -9 17 -14 0 -13 122 -69 149 -69 28 0 37 -21 17 -36 -10 -7 -15 -17 -11 -23 9 -16 25 -13 25 4 0 8 9 15 20 15 11 0 20 4 20 9 0 5 9 11 20 14 34 9 23 29 -15 26 -25 -3 -41 3 -59 21 -18 16 -39 24 -68 26 -24 1 -56 9 -73 18 -16 9 -37 15 -45 15 -11 -1 -10 -3 3 -6z"/>
 <path d="M6033 1344 c-27 -27 -70 -54 -87 -54 -7 0 -27 -7 -42 -15 -37 -19 -54 -19 -82 1 -18 13 -53 15 -189 15 -101 0 -170 -4 -177 -11 -12 -12 -46 -13 -46 -1 0 4 -11 20 -24 34 -16 18 -30 24 -45 20 -12 -3 -21 -8 -21 -12 0 -14 25 -31 45 -31 11 0 32 -14 47 -30 23 -26 30 -29 53 -20 36 14 228 13 242 -1 6 -6 53 -11 104 -12 80 -2 101 2 142 21 60 28 124 89 109 104 -7 7 -16 4 -29 -8z"/>
 <path d="M4245 1320 c3 -5 8 -10 11 -10 3 0 2 5 -1 10 -3 6 -8 10 -11 10 -3 0 -2 -4 1 -10z"/>
 <path d="M4270 1295 c0 -9 5 -15 11 -13 6 2 11 8 11 13 0 5 -5 11 -11 13 -6 2 -11 -4 -11 -13z"/>
 <path d="M4837 1230 c16 -27 43 -41 43 -22 0 9 -45 52 -54 52 -4 0 1 -13 11 -30z"/>
 </g>
<g id="layer102" fill="#090909" stroke="none">
 <path d="M3890 8993 c1 -5 17 -30 36 -58 19 -27 47 -67 61 -87 l25 -38 -19 -37 c-11 -21 -34 -63 -51 -93 -17 -30 -42 -91 -55 -135 -103 -330 -102 -327 -191 -470 -32 -49 -75 -127 -97 -173 -38 -78 -41 -92 -50 -209 -7 -112 -11 -129 -34 -159 -31 -41 -80 -67 -155 -84 -30 -7 -71 -16 -90 -20 -19 -4 -60 -13 -90 -20 -30 -7 -71 -15 -90 -20 -19 -4 -100 -22 -180 -39 -346 -77 -437 -127 -513 -281 -28 -56 -32 -77 -35 -161 -3 -86 -1 -103 23 -164 38 -93 32 -115 -52 -191 -66 -60 -67 -61 -66 -111 1 -93 123 -297 167 -280 26 10 17 82 -18 148 -30 58 -32 71 -11 63 17 -7 22 31 5 41 -21 13 -7 41 33 70 56 41 97 121 97 190 0 45 -3 55 -20 60 -11 3 -31 21 -46 40 -20 27 -25 45 -25 93 -1 112 71 217 184 271 58 28 63 29 91 14 18 -9 42 -13 62 -10 25 4 46 -1 81 -21 38 -21 61 -26 117 -26 61 -1 71 1 74 18 5 22 -16 38 -39 31 -13 -4 -18 4 -22 37 -6 44 4 70 18 47 5 -6 8 -23 9 -37 1 -33 21 -39 36 -12 9 17 14 19 25 10 10 -8 19 -8 34 0 24 12 26 22 9 51 -11 18 -10 23 11 40 14 11 36 19 50 17 22 -3 26 -7 23 -32 -3 -27 -1 -28 25 -21 37 9 53 23 53 47 0 21 22 33 47 24 14 -6 14 -8 -3 -21 -14 -10 -16 -17 -7 -25 19 -21 68 -1 113 45 53 54 91 59 129 20 18 -20 21 -28 11 -39 -9 -12 -6 -18 17 -29 78 -40 150 -39 189 4 15 17 16 25 7 50 -10 25 -9 31 7 39 28 15 38 12 42 -12 4 -31 23 -20 23 13 0 14 6 38 14 52 17 32 8 46 -18 30 -23 -14 -31 -8 -31 23 0 17 -7 25 -22 28 -115 21 -127 32 -149 142 -18 88 1 167 59 253 73 108 127 225 193 421 74 220 113 309 174 396 25 36 45 74 45 84 0 11 -13 40 -30 66 -16 26 -37 69 -45 95 l-17 49 -74 0 c-41 0 -74 -3 -74 -7z m-231 -1617 c23 -24 23 -24 3 -35 -27 -14 -52 -14 -52 0 0 7 -7 17 -17 24 -9 7 -13 17 -9 23 12 20 51 13 75 -12z"/>
 <path d="M5616 8992 c5 -5 99 -62 209 -127 110 -65 254 -151 320 -190 197 -118 469 -280 480 -285 51 -25 255 -155 255 -161 0 -5 -22 -9 -49 -9 -45 0 -51 -3 -83 -42 -54 -66 -145 -211 -192 -307 -134 -269 -188 -501 -201 -866 -8 -227 -23 -272 -171 -521 -150 -253 -225 -438 -284 -697 -40 -175 -51 -285 -51 -502 0 -265 19 -394 101 -685 46 -160 11 -280 -120 -410 -185 -185 -425 -219 -700 -101 -160 69 -309 178 -571 418 -78 70 -159 140 -181 155 -60 41 -133 58 -248 58 -99 0 -230 -17 -230 -30 0 -3 27 -32 60 -65 37 -37 60 -68 60 -81 0 -24 -56 -87 -72 -82 -29 10 -78 138 -78 205 0 45 -14 63 -49 63 -29 -1 -49 -14 -74 -50 -35 -51 -24 -84 112 -359 50 -100 91 -193 91 -205 0 -41 -41 -148 -81 -212 -87 -137 -214 -220 -419 -272 -182 -47 -249 -79 -308 -146 -46 -52 -61 -88 -68 -153 -5 -42 -2 -69 10 -97 9 -22 14 -41 11 -44 -5 -5 -234 86 -249 100 -22 18 -28 6 -22 -44 23 -196 26 -272 11 -287 -13 -13 -19 -13 -35 -3 -11 6 -29 12 -40 12 -12 0 -28 12 -38 29 -24 40 -78 83 -99 79 -10 -2 -20 -14 -21 -28 -2 -14 -8 -30 -13 -36 -12 -14 69 -91 106 -100 14 -3 43 -4 64 0 30 5 44 1 65 -15 46 -36 48 -35 -299 -80 -156 -21 -155 -21 -172 31 -10 33 -14 96 -13 236 0 105 -3 211 -9 235 -5 24 -15 71 -21 104 -15 72 -55 196 -81 247 -10 21 -19 40 -19 43 0 3 17 13 37 22 21 8 56 23 79 34 22 10 65 28 95 39 76 30 429 211 429 220 0 15 -32 20 -121 20 -110 0 -196 -21 -294 -70 l-74 -38 -16 34 c-19 40 -22 102 -7 131 8 15 30 22 94 32 154 24 302 71 408 129 62 34 150 91 150 96 0 3 -52 5 -115 5 -74 0 -140 6 -183 17 -74 18 -205 75 -217 93 -16 28 81 130 159 168 20 9 36 22 36 29 0 33 -191 148 -210 127 -4 -4 -15 -105 -24 -223 -10 -118 -20 -226 -24 -239 -7 -25 -111 -91 -143 -91 -18 0 -128 118 -221 236 -87 110 -209 303 -244 387 -25 57 -37 46 -32 -31 2 -49 11 -82 32 -122 31 -59 105 -157 156 -205 48 -45 118 -148 151 -220 38 -84 38 -144 2 -222 -24 -51 -27 -70 -27 -158 -1 -93 5 -124 92 -465 50 -201 92 -375 92 -388 0 -19 -5 -22 -40 -22 -32 0 -46 -7 -76 -37 -61 -60 -89 -141 -113 -323 -14 -100 -26 -192 -56 -398 -14 -95 -25 -198 -25 -229 0 -110 42 -217 123 -318 133 -164 316 -252 650 -316 l118 -22 34 33 c30 29 43 34 94 38 70 5 136 -12 255 -68 301 -140 718 -274 1036 -331 281 -51 300 -52 760 -56 304 -3 469 -1 520 7 391 60 722 201 1025 439 102 79 289 272 371 382 457 612 618 1371 472 2224 -26 155 -71 344 -123 515 -22 73 -94 274 -120 335 -7 17 -25 59 -40 95 -15 36 -38 89 -51 118 -13 29 -24 54 -24 56 0 2 -26 59 -59 127 -32 68 -70 149 -84 179 -14 30 -51 109 -82 175 -31 66 -66 142 -77 169 -10 27 -28 69 -39 94 -78 169 -172 461 -217 667 -34 158 -51 385 -40 545 15 224 54 377 150 579 128 270 283 471 772 1005 107 116 206 226 221 244 l27 32 -35 0 c-31 0 -44 -10 -118 -87 -149 -158 -392 -393 -406 -393 -7 0 -31 11 -53 25 -22 14 -41 25 -44 25 -2 0 -39 20 -82 43 -44 24 -119 65 -169 92 -49 26 -103 56 -120 65 -41 24 -151 83 -203 109 l-44 22 56 40 c31 22 56 44 56 50 0 5 -22 9 -50 9 -54 0 -70 -15 -70 -65 l0 -26 -52 27 c-29 16 -65 36 -80 46 -26 18 -128 26 -128 11 1 -14 217 -154 406 -264 98 -56 290 -155 387 -198 153 -68 140 -59 134 -98 -7 -40 -49 -91 -84 -99 -17 -5 -85 31 -270 141 -136 81 -276 165 -311 187 -34 21 -77 47 -95 57 -17 10 -81 47 -142 83 -60 36 -155 91 -210 124 -55 32 -101 62 -103 66 -2 4 -47 8 -100 8 -53 0 -92 -4 -86 -8z m605 -2772 c23 -13 26 -68 4 -76 -21 -8 -28 -40 -13 -63 18 -30 0 -40 -22 -11 -42 56 -44 66 -21 114 23 50 24 51 52 36z m154 -370 c3 -6 -1 -13 -10 -16 -19 -8 -30 0 -20 15 8 14 22 14 30 1z m75 -50 c0 -5 -4 -10 -10 -10 -5 0 -10 5 -10 10 0 6 5 10 10 10 6 0 10 -4 10 -10z m-85 -100 c0 -7 -6 -15 -12 -17 -8 -3 -13 4 -13 17 0 13 5 20 13 18 6 -3 12 -11 12 -18z m52 -102 c35 -78 54 -178 34 -178 -16 0 -45 55 -52 100 -4 25 -11 57 -15 73 -8 34 18 38 33 5z m-127 -98 c0 -26 -15 -33 -30 -15 -10 12 -10 18 0 30 15 18 30 11 30 -15z m380 -138 c0 -4 10 -12 23 -17 17 -8 21 -17 19 -41 -2 -25 2 -33 18 -37 18 -4 20 -13 20 -71 0 -81 -19 -89 -49 -20 -17 37 -18 49 -8 65 10 16 8 21 -11 34 -12 9 -22 27 -22 40 0 13 -4 27 -10 30 -15 9 -12 25 5 25 8 0 15 -3 15 -8z m-360 -86 c0 -8 9 -18 20 -21 22 -7 25 -16 11 -30 -5 -6 -11 -21 -13 -35 -5 -43 -33 -31 -33 15 -1 22 -4 46 -9 53 -8 13 0 32 15 32 5 0 9 -6 9 -14z m17 -173 c-4 -3 -7 0 -7 7 0 7 3 10 7 7 3 -4 3 -10 0 -14z m54 -85 c11 -27 19 -32 40 -30 34 3 49 -27 18 -35 -16 -4 -19 -11 -15 -29 6 -23 -11 -64 -26 -64 -4 0 -15 16 -24 36 -13 26 -14 38 -5 47 24 24 -1 87 -36 87 -7 0 -13 5 -13 10 0 6 10 10 23 10 17 0 27 -9 38 -32z m294 -18 c14 -15 15 -23 6 -34 -6 -7 -9 -20 -6 -27 3 -8 -6 -19 -22 -26 -32 -15 -41 -9 -25 17 9 16 10 24 0 39 -9 15 -9 23 1 35 17 21 24 20 46 -4z m-115 -206 c0 -31 -23 -28 -28 4 -2 15 2 22 12 22 11 0 16 -9 16 -26z m247 -6 c-3 -8 -6 -5 -6 6 -1 11 2 17 5 13 3 -3 4 -12 1 -19z m0 -45 c-4 -3 -7 0 -7 7 0 7 3 10 7 7 3 -4 3 -10 0 -14z m-300 -10 c-4 -3 -7 0 -7 7 0 7 3 10 7 7 3 -4 3 -10 0 -14z m-72 -106 c14 -27 16 -40 8 -48 -21 -21 -43 -2 -43 36 0 19 -5 44 -12 54 -9 15 -9 23 3 37 13 16 14 15 19 -12 3 -16 14 -46 25 -67z m142 71 c22 -21 32 -58 15 -58 -5 0 -14 11 -20 25 -6 14 -16 25 -22 25 -5 0 -10 7 -10 15 0 21 10 19 37 -7z m250 -5 c-4 -3 -7 0 -7 7 0 7 3 10 7 7 3 -4 3 -10 0 -14z m-141 -99 c-6 -16 -9 -16 -29 4 -19 19 -20 24 -7 32 20 12 45 -12 36 -36z m-2410 -101 c3 -10 10 -27 16 -38 9 -17 6 -16 -16 4 -26 25 -35 51 -16 51 6 0 13 -8 16 -17z m-176 -12 c0 -5 -7 -14 -15 -21 -13 -10 -15 -9 -15 9 0 12 6 21 15 21 8 0 15 -4 15 -9z m2632 -85 c4 -59 -12 -69 -33 -22 -14 30 -14 37 -1 61 18 35 29 22 34 -39z m-2718 -27 c4 -23 4 -44 1 -47 -10 -10 -34 33 -35 61 0 44 26 33 34 -14z m2186 12 c0 -12 -20 -25 -27 -18 -7 7 6 27 18 27 5 0 9 -4 9 -9z m547 -77 c-9 -9 -28 6 -21 18 4 6 10 6 17 -1 6 -6 8 -13 4 -17z m-583 -38 c18 7 22 -15 7 -44 -27 -53 -33 -72 -27 -89 4 -13 -1 -26 -13 -37 -45 -40 -50 15 -10 99 18 37 18 41 3 52 -11 8 -14 19 -10 30 7 17 8 17 20 0 8 -10 20 -15 30 -11z m995 15 c12 -8 10 -12 -12 -22 -30 -14 -43 -8 -34 16 7 17 25 19 46 6z m-519 -11 c0 -5 -4 -10 -10 -10 -5 0 -10 5 -10 10 0 6 5 10 10 10 6 0 10 -4 10 -10z m215 -30 c0 -22 -29 -18 -33 3 -3 14 1 18 15 15 10 -2 18 -10 18 -18z m-185 -21 c14 -25 6 -49 -15 -49 -11 0 -15 10 -15 35 0 39 14 46 30 14z m-2094 -4 c3 -8 2 -40 -4 -72 -8 -47 -7 -62 6 -81 8 -13 15 -37 14 -53 0 -23 3 -29 16 -27 27 4 42 -11 42 -41 0 -49 -22 -55 -55 -14 -51 63 -65 87 -65 114 0 14 -9 34 -20 44 -32 29 -27 79 13 115 37 34 45 36 53 15z m-236 -60 c11 -13 8 -22 -17 -53 -29 -36 -48 -98 -32 -107 4 -3 5 -14 2 -25 -3 -11 0 -27 7 -35 18 -22 3 -53 -31 -60 -33 -7 -56 6 -45 24 4 6 16 11 27 11 23 0 23 6 3 66 -11 33 -13 49 -5 57 6 6 11 27 11 47 0 74 46 116 80 75z m515 -5 c9 -15 -14 -40 -36 -40 -21 0 -25 20 -7 38 15 15 35 15 43 2z m1621 -12 c9 -29 10 -88 1 -88 -32 0 -61 50 -37 65 6 3 10 15 10 26 0 26 17 24 26 -3z m-2328 -3 c2 -2 -1 -20 -8 -39 -10 -32 -79 -96 -102 -96 -14 0 -8 29 8 38 8 5 17 19 18 33 2 13 9 37 15 53 10 24 15 27 39 21 15 -4 29 -8 30 -10z m2929 -60 c33 -56 36 -65 29 -73 -12 -12 -41 14 -44 40 -2 14 -12 34 -23 44 -23 21 -25 37 -2 32 9 -2 27 -21 40 -43z m-1007 -5 c0 -11 -7 -20 -15 -20 -15 0 -21 21 -8 33 12 13 23 7 23 -13z m-170 -55 c0 -37 -3 -45 -19 -45 -23 0 -36 42 -21 70 20 37 40 24 40 -25z m1042 -32 c1 -27 -2 -55 -6 -61 -14 -23 -26 -12 -26 23 0 24 -5 35 -15 35 -23 0 -18 37 7 54 29 21 39 9 40 -51z m-2004 -43 c24 -32 37 -90 28 -126 -8 -32 -26 -31 -26 1 0 14 -11 47 -25 74 -23 43 -25 81 -6 81 4 0 17 -13 29 -30z m1700 -3 c2 -15 -1 -27 -5 -27 -15 0 -33 23 -33 43 0 30 34 16 38 -16z m502 -42 c0 -19 -20 -29 -32 -17 -8 8 -7 16 2 26 14 17 30 12 30 -9z m-2611 -26 c11 -25 11 -36 2 -50 -6 -10 -11 -27 -11 -36 -1 -27 -25 -54 -42 -48 -9 4 -22 -4 -32 -19 -21 -34 -21 -33 20 -51 20 -8 33 -19 29 -25 -5 -8 -11 -8 -20 0 -10 8 -19 8 -35 0 -18 -9 -21 -18 -16 -41 8 -42 -17 -38 -48 8 -25 37 -27 71 -4 100 5 6 8 17 6 25 -4 18 3 21 35 13 37 -10 67 16 48 39 -11 13 -9 22 8 49 12 19 21 42 21 51 0 27 24 18 39 -15z m2121 6 c14 -17 4 -55 -14 -55 -16 0 -40 45 -32 59 10 15 31 14 46 -4z m-232 -18 c13 -10 17 -77 4 -77 -4 0 -20 11 -35 25 -25 24 -35 54 -21 68 7 6 33 -1 52 -16z m389 7 c10 -28 -13 -37 -25 -9 -10 21 -9 25 4 25 8 0 17 -7 21 -16z m153 1 c0 -21 -30 -31 -41 -14 -14 23 -11 29 16 29 16 0 25 -6 25 -15z m-870 -25 c0 -16 -4 -30 -9 -30 -12 0 -24 37 -16 50 12 20 25 10 25 -20z m-175 -38 c0 -18 -20 -15 -23 4 -3 10 1 15 10 12 7 -3 13 -10 13 -16z m-1707 -20 c3 -9 -2 -13 -14 -10 -9 1 -19 9 -22 16 -3 9 2 13 14 10 9 -1 19 -9 22 -16z m2617 8 c8 -13 -14 -42 -26 -34 -5 3 -9 14 -9 25 0 20 24 26 35 9z m-2775 -19 c0 -11 5 -23 11 -27 7 -4 9 -21 6 -40 -3 -19 -1 -36 4 -40 5 -3 16 -20 24 -37 8 -18 26 -47 40 -66 14 -19 25 -44 25 -56 0 -14 13 -30 38 -46 36 -23 37 -26 40 -92 3 -62 1 -67 -18 -67 -13 0 -20 7 -20 18 0 11 -10 27 -21 38 -12 10 -25 29 -30 42 -5 13 -13 21 -17 18 -15 -9 -80 68 -96 114 -19 54 -21 111 -4 128 14 14 12 80 -3 99 -11 13 -4 33 12 33 5 0 9 -9 9 -19z m1088 -2 c12 -18 11 -24 -7 -43 -12 -12 -21 -34 -21 -47 0 -27 -42 -75 -58 -65 -11 6 -15 97 -4 112 4 6 15 13 25 17 9 3 17 16 17 27 0 27 31 26 48 -1z m399 -26 c-4 -3 -10 -3 -14 0 -3 4 0 7 7 7 7 0 10 -3 7 -7z m661 -9 c28 -20 30 -69 3 -84 -28 -14 -28 -14 -34 23 -3 17 -8 42 -12 55 -9 27 10 30 43 6z m-1496 -9 c8 -8 -18 -79 -31 -83 -15 -5 -14 61 1 76 13 13 22 15 30 7z m1236 -19 c3 -12 -1 -17 -10 -14 -7 3 -15 13 -16 22 -3 12 1 17 10 14 7 -3 15 -13 16 -22z m-358 -9 c0 -7 -9 -18 -20 -25 -11 -7 -20 -19 -20 -27 0 -9 -10 -15 -25 -15 -17 0 -25 5 -25 18 0 10 -5 23 -12 30 -6 6 -9 15 -5 19 4 3 14 -2 22 -13 15 -19 16 -19 31 4 18 24 54 30 54 9z m850 -52 c0 -9 -7 -18 -16 -22 -18 -7 -39 11 -30 26 11 17 46 13 46 -4z m-2529 -37 c1 -18 3 -51 4 -73 1 -22 11 -60 23 -85 11 -25 22 -58 24 -75 2 -21 9 -31 23 -33 30 -6 41 -20 27 -34 -19 -19 -14 -70 14 -127 29 -61 29 -108 0 -51 -27 52 -55 78 -90 85 -63 13 -124 36 -130 51 -3 9 1 14 12 14 15 0 18 8 17 38 -1 50 -33 147 -56 168 -33 30 -53 -12 -27 -59 7 -12 13 -35 13 -52 1 -16 5 -40 9 -51 5 -18 2 -23 -20 -28 -46 -12 -104 59 -104 126 0 28 11 43 73 100 50 45 87 70 115 78 25 6 42 17 42 25 0 8 7 15 15 15 10 0 15 -11 16 -32z m895 -34 c-7 -18 -22 -18 -30 1 -3 8 3 22 12 31 16 17 17 17 20 0 2 -9 1 -24 -2 -32z m-298 -11 c-4 -22 -22 -20 -26 1 -2 10 3 16 13 16 10 0 15 -7 13 -17z m-58 -29 c0 -8 -4 -14 -10 -14 -5 0 -10 9 -10 21 0 11 5 17 10 14 6 -3 10 -13 10 -21z m1466 -18 c1 -15 11 -40 23 -56 26 -35 26 -40 3 -40 -10 0 -24 -6 -30 -12 -10 -10 -15 -10 -22 2 -14 21 -16 113 -3 133 10 16 28 0 29 -27z m353 25 c10 -6 1 -11 -28 -16 -31 -5 -45 -13 -51 -30 -10 -26 -26 -39 -34 -27 -9 15 32 70 56 75 38 7 42 7 57 -2z m138 -67 c-9 -9 -28 6 -21 18 4 6 10 6 17 -1 6 -6 8 -13 4 -17z m-888 -17 c15 4 21 1 21 -11 0 -12 -10 -16 -37 -16 -38 0 -73 23 -73 48 0 11 7 10 34 -6 20 -12 44 -18 55 -15z m-359 -7 c0 -19 -20 -27 -33 -13 -8 7 11 33 24 33 5 0 9 -9 9 -20z m1330 5 c0 -2 -5 -15 -11 -29 -9 -20 -9 -29 1 -41 10 -12 10 -18 0 -30 -17 -20 -40 -19 -40 3 0 9 -7 30 -15 46 -20 39 -19 44 13 49 46 7 52 7 52 2z m-1813 -27 c13 -12 23 -27 23 -34 0 -7 12 -19 27 -26 36 -18 94 -130 66 -127 -20 2 -69 38 -79 57 -14 27 -79 92 -94 92 -16 0 -12 21 8 41 22 23 22 23 49 -3z m-1347 -18 c0 -5 -2 -10 -4 -10 -3 0 -8 5 -11 10 -3 6 -1 10 4 10 6 0 11 -4 11 -10z m1600 -22 c11 -18 20 -39 20 -46 0 -25 -25 -6 -48 36 -20 35 -21 42 -8 42 9 0 25 -15 36 -32z m1738 -7 c3 -8 -1 -12 -9 -9 -7 2 -15 10 -17 17 -3 8 1 12 9 9 7 -2 15 -10 17 -17z m-3332 -35 c3 -8 0 -24 -6 -36 -9 -16 -9 -25 -1 -33 6 -6 11 -29 11 -50 0 -33 7 -46 40 -79 33 -33 43 -38 55 -28 25 21 36 2 19 -33 -9 -18 -18 -33 -19 -35 -6 -7 -57 52 -61 71 -4 21 -21 37 -40 37 -6 0 -23 18 -38 40 -14 22 -31 40 -36 40 -19 0 -10 44 16 82 28 39 51 48 60 24z m171 -65 c-7 -67 -21 -114 -35 -119 -9 -3 -12 17 -12 73 0 88 13 124 37 104 11 -9 13 -25 10 -58z m913 -1 c6 -11 21 -20 34 -20 19 0 23 -5 22 -32 -2 -49 -14 -63 -36 -43 -16 15 -60 95 -60 110 0 14 31 2 40 -15z m2240 10 c12 -8 9 -10 -12 -10 -16 0 -28 5 -28 10 0 13 20 13 40 0z m-1191 -18 c5 -9 7 -29 4 -44 l-5 -28 -19 24 c-19 25 -24 48 -12 59 11 12 22 8 32 -11z m1296 -22 c10 -11 26 -22 36 -25 14 -5 19 -16 19 -41 0 -19 -3 -34 -7 -34 -11 0 -93 97 -93 109 0 18 26 13 45 -9z m-1525 -41 c0 -4 -10 -9 -22 -13 -25 -6 -65 25 -54 42 6 10 76 -16 76 -29z m481 -35 c25 -60 25 -76 -3 -72 -17 2 -24 11 -26 30 -3 26 -35 57 -74 71 -25 9 -22 26 5 36 35 14 75 -13 98 -65z m-704 16 c3 -13 14 -20 29 -20 13 0 24 -4 24 -10 0 -9 -39 -35 -44 -28 -1 2 -15 20 -30 41 -28 36 -28 37 -6 37 13 0 24 -8 27 -20z m295 -37 c10 -9 18 -24 18 -34 0 -18 -2 -18 -37 -2 -21 10 -40 18 -42 20 -2 1 -1 9 2 18 8 20 36 19 59 -2z m-2422 -13 c0 -11 -4 -20 -9 -20 -14 0 -23 18 -16 30 10 17 25 11 25 -10z m50 -29 c0 -5 9 -11 20 -14 19 -5 30 -47 13 -47 -16 1 -64 50 -58 60 8 12 25 13 25 1z m1889 -45 c-10 -11 -42 20 -34 34 3 5 13 2 24 -8 10 -9 14 -21 10 -26z m-203 -21 c40 -69 28 -74 -37 -14 -35 32 -41 42 -29 50 25 15 42 6 66 -36z m-276 19 c0 -9 8 -23 18 -30 13 -9 14 -16 5 -24 -8 -9 -13 -7 -17 8 -4 11 -16 22 -26 25 -13 3 -18 11 -14 21 8 21 34 21 34 0z m558 4 c16 -16 15 -38 -1 -38 -22 0 -51 26 -43 38 9 15 29 15 44 0z m-998 -14 c0 -11 -5 -14 -16 -10 -9 3 -20 6 -25 6 -5 0 -9 5 -9 10 0 6 11 10 25 10 16 0 25 -6 25 -16z m1214 -28 c16 -1 31 -7 34 -14 3 -9 -6 -12 -30 -10 -19 1 -40 -2 -47 -6 -8 -5 -20 0 -31 12 -22 23 -10 34 25 25 11 -3 33 -6 49 -7z m-1433 -38 c7 -18 27 -47 46 -64 22 -21 31 -37 27 -48 -10 -26 -35 -19 -76 21 -32 32 -38 43 -38 80 0 53 22 58 41 11z m1519 11 c0 -5 7 -9 15 -9 8 0 23 -4 33 -9 9 -5 40 -13 67 -18 41 -7 51 -12 53 -30 3 -21 0 -23 -49 -23 -34 0 -69 8 -103 24 -46 22 -51 28 -50 53 1 15 3 29 3 30 3 6 31 -10 31 -18z m1605 11 c7 -12 -12 -40 -26 -40 -10 0 -12 34 -2 43 9 10 21 9 28 -3z m-3415 -20 c0 -19 -20 -27 -33 -13 -8 7 11 33 24 33 5 0 9 -9 9 -20z m-236 -21 c-10 -16 -24 -9 -24 12 0 18 2 19 15 9 8 -7 12 -16 9 -21z m-191 -14 c-3 -8 -11 -15 -19 -15 -8 0 -17 0 -21 -1 -19 -2 -12 22 9 30 28 10 39 5 31 -14z m1277 3 c0 -20 103 -128 122 -128 31 0 48 -12 48 -35 0 -30 -25 -52 -37 -32 -11 20 -71 52 -112 60 -57 12 -110 57 -66 57 8 0 16 8 16 18 2 22 6 55 7 65 3 12 22 8 22 -5z m-765 -18 c0 -7 -6 -15 -12 -17 -8 -3 -13 4 -13 17 0 13 5 20 13 18 6 -3 12 -11 12 -18z m514 11 c7 -5 12 -14 9 -21 -2 -7 -10 -4 -22 9 -19 21 -12 28 13 12z m2411 -81 c38 -38 11 -64 -34 -35 -28 19 -34 40 -13 48 21 9 26 8 47 -13z m-1455 0 c3 -5 17 -10 29 -10 28 0 53 -25 36 -35 -13 -8 -82 14 -92 28 -8 12 -1 27 12 27 5 0 12 -4 15 -10z m-957 -68 c51 -18 81 -44 82 -69 0 -19 -25 -16 -44 6 -10 10 -37 24 -60 30 -41 10 -63 31 -49 45 9 9 13 8 71 -12z m552 -7 c5 -14 16 -25 25 -25 8 0 15 -7 15 -15 0 -21 -26 -19 -35 3 -6 16 -7 16 -21 -2 -7 -11 -15 -18 -17 -15 -22 30 -37 62 -32 69 13 21 55 11 65 -15z m1737 -22 c-4 -3 -10 -3 -14 0 -3 4 0 7 7 7 7 0 10 -3 7 -7z m-3286 -13 c14 -8 19 -21 19 -55 0 -24 -4 -47 -10 -50 -5 -3 -10 -17 -10 -31 0 -14 -7 -27 -17 -31 -10 -3 -28 -18 -40 -32 -11 -14 -25 -23 -29 -18 -4 4 2 17 13 30 14 15 22 42 27 85 6 67 15 112 23 112 2 0 13 -5 24 -10z m229 -25 c0 -8 -7 -15 -15 -15 -8 0 -15 7 -15 15 0 8 7 15 15 15 8 0 15 -7 15 -15z m2283 1 c9 -22 -13 -33 -65 -34 -32 0 -48 4 -48 12 0 30 103 49 113 22z m-579 -11 c3 -8 16 -15 30 -15 31 0 40 -23 17 -44 -24 -22 -28 -20 -34 14 -4 18 -13 30 -22 30 -8 0 -15 7 -15 15 0 8 4 15 9 15 5 0 11 -7 15 -15z m-234 -25 c0 -23 -10 -26 -28 -8 -18 18 -15 28 8 28 13 0 20 -7 20 -20z m84 -48 c22 -15 58 -36 79 -46 21 -10 36 -20 33 -24 -10 -10 -240 -2 -250 8 -7 7 5 10 32 10 45 0 64 19 43 43 -8 10 -7 17 1 25 16 16 14 16 62 -16z m-2250 9 c3 -5 -5 -11 -19 -13 -24 -5 -32 2 -18 15 9 10 31 9 37 -2z m723 -76 c32 -6 93 -67 93 -91 0 -20 -50 -46 -76 -40 -23 6 -30 26 -25 78 2 21 -17 34 -31 20 -7 -7 -19 -6 -36 4 -15 7 -35 15 -44 18 -10 3 -18 10 -18 15 0 11 80 19 95 10 6 -4 25 -10 42 -14z m2118 -4 c3 -5 1 -13 -5 -16 -15 -9 -43 3 -35 15 8 13 32 13 40 1z m-1603 -33 c34 -19 83 -66 75 -74 -3 -4 -13 -1 -21 5 -8 7 -34 22 -57 34 -44 22 -63 47 -36 47 8 0 25 -6 39 -12z m745 -7 c7 -10 9 -22 6 -25 -7 -7 -43 23 -43 36 0 15 25 8 37 -11z m1291 -33 c2 -13 -1 -16 -12 -12 -8 3 -24 -4 -36 -16 -27 -27 -80 -44 -80 -26 0 19 82 76 105 73 11 -1 21 -10 23 -19z m-1438 -8 c0 -5 -2 -10 -4 -10 -3 0 -8 5 -11 10 -3 6 -1 10 4 10 6 0 11 -4 11 -10z m790 0 c0 -5 -2 -10 -4 -10 -3 0 -8 5 -11 10 -3 6 -1 10 4 10 6 0 11 -4 11 -10z m-1581 -14 c9 -10 9 -16 1 -21 -17 -11 -40 3 -34 20 8 19 18 19 33 1z m486 -14 c8 -21 -37 -32 -57 -14 -10 8 -18 18 -18 22 0 12 70 5 75 -8z m594 -5 c57 -15 71 -43 18 -34 -45 7 -107 36 -107 49 0 6 10 7 23 4 12 -4 42 -12 66 -19z m-1005 -12 c34 -14 50 -45 24 -45 -19 0 -78 38 -78 50 0 14 11 13 54 -5z m1486 -26 c0 -25 -33 -22 -38 4 -2 12 3 17 17 17 15 0 21 -6 21 -21z m750 -19 c0 -20 -25 -38 -36 -27 -8 7 15 47 26 47 6 0 10 -9 10 -20z m-1799 -21 c16 -17 26 -35 23 -40 -9 -15 -24 -10 -31 9 -4 9 -15 23 -25 30 -10 7 -16 18 -13 23 9 14 15 11 46 -22z m1429 21 c10 -6 11 -12 5 -18 -11 -10 -115 -24 -115 -16 0 5 80 43 90 44 3 0 12 -5 20 -10z m-695 -60 c0 -13 -6 -25 -12 -27 -9 -3 -13 6 -13 27 0 21 4 30 13 28 6 -3 12 -15 12 -28z m-417 8 c10 -10 15 -10 21 1 11 17 45 7 38 -12 -4 -14 -66 -17 -84 -4 -7 5 -10 13 -7 18 7 12 18 11 32 -3z m-478 -23 c0 -8 -9 -15 -20 -15 -11 0 -20 7 -20 15 0 8 9 15 20 15 11 0 20 -7 20 -15z m-715 -72 c-24 -36 -40 -15 -19 26 14 29 18 31 26 17 7 -12 5 -25 -7 -43z m772 45 c6 -7 13 -30 17 -50 8 -46 -12 -53 -38 -13 -30 46 -10 103 21 63z m206 -33 c5 -22 11 -58 14 -80 4 -31 14 -48 46 -77 37 -32 41 -39 30 -56 -10 -17 -8 -23 13 -41 13 -11 24 -31 24 -44 0 -13 5 -28 11 -34 7 -7 9 -19 5 -29 -6 -16 -8 -15 -27 2 -26 24 -89 127 -89 147 0 14 -18 43 -75 123 -7 10 -6 21 3 35 10 15 11 24 3 32 -12 12 -15 50 -4 61 17 16 38 -2 46 -39z m1887 20 c0 -26 -14 -33 -25 -15 -9 14 1 40 15 40 5 0 10 -11 10 -25z m-1420 2 c0 -32 -89 -88 -144 -92 -23 -2 -50 -5 -61 -7 -14 -2 -20 3 -20 17 0 14 10 21 40 27 49 10 98 33 115 53 16 19 70 20 70 2z m1260 -16 c14 -4 26 -15 28 -24 3 -14 -4 -17 -37 -17 -22 0 -43 -4 -46 -10 -3 -5 -28 -10 -55 -10 -40 0 -50 4 -55 20 -3 11 -14 20 -23 21 -9 1 1 7 23 14 43 14 125 17 165 6z m-210 -21 c0 -4 -7 -10 -15 -13 -16 -7 -29 8 -20 23 6 10 35 2 35 -10z m-3440 -9 c13 -25 13 -78 0 -86 -5 -3 -10 -34 -10 -68 0 -46 5 -68 20 -87 11 -14 20 -33 20 -42 0 -21 -22 -36 -28 -19 -2 7 -15 16 -28 21 -24 9 -24 11 -24 148 0 76 3 142 7 145 12 13 32 7 43 -12z m860 -10 c0 -5 -11 -8 -25 -7 -33 1 -33 16 0 16 14 0 25 -4 25 -9z m180 -1 c0 -5 -5 -10 -11 -10 -5 0 -7 5 -4 10 3 6 8 10 11 10 2 0 4 -4 4 -10z m3045 -15 c17 -7 49 -18 73 -25 24 -6 42 -17 42 -25 0 -21 -19 -28 -37 -13 -9 7 -30 14 -47 14 -27 1 -138 26 -173 39 -7 2 -10 12 -6 21 5 13 15 15 62 9 31 -3 70 -12 86 -20z m-3227 -47 c2 -20 -3 -29 -27 -41 -35 -17 -51 -7 -51 33 0 36 16 49 48 41 19 -5 28 -15 30 -33z m1712 35 c-1 -11 -26 -43 -34 -43 -10 0 -7 25 6 38 13 13 28 16 28 5z m-1461 -26 c5 -13 16 -29 25 -36 19 -16 21 -41 4 -41 -7 0 -23 -3 -35 -6 -21 -6 -23 -3 -23 27 0 19 -4 41 -9 49 -6 8 -7 18 -5 22 10 16 35 7 43 -15z m2613 -12 c0 -5 -5 -11 -11 -13 -6 -2 -11 4 -11 13 0 9 5 15 11 13 6 -2 11 -8 11 -13z m533 -25 c-5 -8 -11 -8 -17 -2 -6 6 -7 16 -3 22 5 8 11 8 17 2 6 -6 7 -16 3 -22z m-755 -20 c0 -5 -4 -10 -10 -10 -5 0 -10 5 -10 10 0 6 5 10 10 10 6 0 10 -4 10 -10z m-902 -41 c3 -30 -35 -59 -45 -34 -7 20 17 67 31 62 6 -2 12 -14 14 -28z m-1850 -33 c3 -15 0 -17 -20 -11 -30 10 -31 11 -23 25 10 17 39 8 43 -14z m290 -10 c3 -12 -1 -17 -10 -14 -7 3 -15 13 -16 22 -3 12 1 17 10 14 7 -3 15 -13 16 -22z m560 -43 c-3 -40 -6 -48 -23 -48 -15 0 -21 8 -23 33 -4 36 11 62 35 62 11 0 13 -12 11 -47z m1230 -4 c17 -16 32 -34 32 -40 0 -13 -51 0 -73 19 -16 14 -23 14 -81 -6 -78 -27 -86 -27 -86 -2 0 14 7 20 23 20 13 0 32 9 42 20 13 14 31 20 64 20 37 0 52 -6 79 -31z m-436 -39 c-3 -35 -8 -50 -18 -50 -18 0 -19 71 -2 88 20 20 23 14 20 -38z m2066 -2 c7 -7 12 -25 12 -40 0 -22 5 -28 21 -28 18 0 19 -2 9 -15 -18 -22 -51 -19 -57 5 -3 11 -14 20 -24 20 -21 0 -25 21 -9 51 12 22 30 25 48 7z m-3728 -32 c-13 -13 -35 7 -25 24 5 8 11 8 21 -1 10 -8 12 -15 4 -23z m2439 -11 c8 -8 11 -21 7 -31 -5 -14 -15 -16 -63 -10 -68 8 -73 11 -73 42 0 25 1 25 58 19 31 -4 63 -13 71 -20z m811 -29 c0 -49 -13 -65 -35 -46 -21 17 -19 67 3 79 28 17 32 13 32 -33z m-2061 -23 c13 -13 30 -23 38 -23 46 0 130 -107 103 -134 -11 -11 -97 61 -99 82 -1 7 -12 17 -26 22 -14 5 -25 14 -25 20 0 5 -7 10 -16 10 -35 0 -56 44 -31 69 10 10 14 9 22 -5 6 -10 21 -28 34 -41z m-1174 27 c3 -5 1 -10 -4 -10 -6 0 -11 5 -11 10 0 6 2 10 4 10 3 0 8 -4 11 -10z m2875 -36 c0 -16 -16 -19 -25 -4 -8 13 4 32 16 25 5 -4 9 -13 9 -21z m-1914 -5 c3 -6 17 -8 30 -5 17 5 24 2 24 -8 0 -8 -5 -18 -12 -22 -21 -14 -121 -16 -145 -3 l-23 12 27 14 c14 7 34 11 44 8 9 -3 20 -1 24 5 8 13 22 13 31 -1z m-625 -32 c-13 -13 -26 -3 -16 12 3 6 11 8 17 5 6 -4 6 -10 -1 -17z m304 2 c13 -20 -4 -57 -29 -63 -13 -3 -39 -21 -57 -39 -19 -19 -44 -37 -57 -41 -12 -4 -22 -15 -22 -26 0 -10 -5 -22 -10 -25 -12 -7 -40 12 -40 27 0 18 66 75 119 104 29 16 58 39 64 51 11 25 22 29 32 12z m1385 -15 c0 -9 -5 -14 -12 -12 -18 6 -21 28 -4 28 9 0 16 -7 16 -16z m248 -14 c18 -11 40 -20 50 -20 20 0 49 -17 41 -24 -3 -3 -20 -1 -39 4 -26 8 -35 6 -45 -6 -10 -14 -15 -12 -43 14 -18 17 -32 35 -32 41 0 17 32 13 68 -9z m-2310 -28 c6 -18 -15 -14 -22 4 -4 10 -1 14 6 12 6 -2 14 -10 16 -16z m-441 -9 c-4 -3 -7 0 -7 7 0 7 3 10 7 7 3 -4 3 -10 0 -14z m3953 -1 c0 -13 -39 -46 -46 -40 -8 9 19 48 33 48 7 0 13 -4 13 -8z m-3406 -37 c-5 -13 -22 -11 -49 4 -11 6 36 20 47 14 4 -2 5 -10 2 -18z m1526 9 c0 -6 -6 -17 -13 -23 -16 -13 -54 10 -44 26 9 14 57 11 57 -3z m873 -9 c1 -5 -15 -10 -35 -11 -34 -1 -49 12 -33 28 9 8 66 -6 68 -17z m-588 5 c3 -5 15 -10 26 -10 10 0 19 -7 19 -15 0 -11 -11 -13 -52 -8 -62 7 -60 6 -52 27 7 17 49 22 59 6z m-81 -9 c7 -10 -22 -37 -30 -28 -9 8 3 37 15 37 5 0 12 -4 15 -9z m-694 -11 c0 -5 -9 -14 -20 -20 -11 -6 -20 -18 -20 -26 0 -11 -8 -14 -27 -12 -39 4 -39 24 -1 48 35 21 68 26 68 10z m584 4 c24 -9 9 -24 -25 -24 -29 0 -40 14 -16 23 18 8 23 8 41 1z m1656 -6 c0 -15 -89 -98 -105 -98 -6 0 -30 -9 -54 -21 -48 -23 -74 -22 -79 4 -2 11 3 17 17 17 11 0 23 5 26 10 3 6 16 10 29 10 16 0 29 12 44 39 19 33 29 40 60 44 20 2 43 4 50 5 6 1 12 -3 12 -10z m-1296 -29 c-8 -14 -24 -10 -24 6 0 9 6 12 15 9 8 -4 12 -10 9 -15z m93 6 c2 -1 -8 -8 -22 -15 -27 -15 -54 -2 -41 19 6 9 51 6 63 -4z m-2059 -16 c-2 -6 -8 -10 -13 -10 -5 0 -11 4 -13 10 -2 6 4 11 13 11 9 0 15 -5 13 -11z m1546 -68 c7 -11 142 -35 155 -27 11 7 101 -31 101 -43 0 -16 -12 -19 -45 -11 -20 4 -38 3 -44 -3 -19 -19 -198 57 -200 86 -1 10 27 9 33 -2z m-1060 -33 c20 -9 23 -14 15 -25 -6 -7 -17 -13 -23 -13 -13 0 -46 -36 -46 -50 0 -6 5 -19 12 -29 6 -10 8 -26 5 -35 -9 -22 -56 -21 -63 2 -3 9 -10 25 -15 34 -17 32 -9 57 24 82 19 15 39 26 45 26 7 0 12 5 12 10 0 13 3 13 34 -2z m616 4 c0 -21 -29 -40 -68 -46 -24 -4 -47 -4 -52 -1 -17 11 2 35 29 35 14 0 33 5 41 10 18 12 50 13 50 2z m864 -7 c20 -9 41 -13 45 -10 5 3 22 -2 37 -10 34 -18 85 -20 101 -4 7 7 17 8 25 3 7 -5 38 -10 69 -11 31 -1 69 -7 84 -13 38 -15 26 -36 -19 -32 -22 2 -48 -3 -62 -13 -18 -12 -29 -13 -43 -5 -29 15 -97 12 -111 -5 -16 -19 -39 -19 -46 0 -3 8 -14 17 -25 20 -10 4 -19 13 -19 21 0 15 -9 18 -53 15 -21 -1 -30 5 -37 25 -6 14 -10 27 -10 30 0 8 29 4 64 -11z m1036 -14 c0 -23 -42 -36 -70 -21 -38 20 -21 38 38 39 25 1 32 -3 32 -18z m-2230 -40 c0 -11 -4 -23 -10 -26 -15 -9 -12 -35 4 -35 7 0 16 9 19 19 5 20 73 45 105 39 25 -5 26 -34 2 -58 -19 -19 -29 -21 -71 -15 -28 4 -55 3 -62 -3 -10 -8 -57 -23 -57 -18 0 1 9 26 20 56 11 30 20 56 20 57 0 2 7 3 15 3 8 0 15 -9 15 -19z m2395 -31 c7 -11 -38 -60 -55 -60 -11 0 -14 53 -3 63 10 11 51 8 58 -3z m-2151 -41 c16 -33 14 -49 -8 -49 -24 0 -44 33 -35 58 12 30 25 28 43 -9z m791 -55 c17 -9 49 -17 73 -18 29 -2 50 -10 68 -26 18 -18 34 -24 59 -21 38 3 49 -17 15 -26 -11 -3 -20 -9 -20 -14 0 -5 -9 -9 -20 -9 -11 0 -20 -7 -20 -15 0 -17 -16 -20 -25 -4 -4 6 1 16 11 23 20 15 11 36 -17 36 -27 0 -149 56 -149 69 0 5 -8 12 -17 14 -13 3 -14 5 -3 6 8 0 29 -6 45 -15z m1142 -68 c-62 -62 -118 -81 -226 -79 -51 1 -98 6 -104 12 -14 14 -206 15 -242 1 -23 -9 -30 -6 -53 20 -15 16 -36 30 -47 30 -20 0 -45 17 -45 31 0 4 9 9 21 12 15 4 29 -2 45 -20 13 -14 24 -30 24 -34 0 -12 34 -11 46 1 7 7 76 11 177 11 136 0 171 -2 189 -15 28 -20 45 -20 82 -1 15 8 35 15 42 15 17 0 60 27 87 54 13 12 22 15 29 8 7 -7 -1 -22 -25 -46z m-1782 14 c3 -5 4 -10 1 -10 -3 0 -8 5 -11 10 -3 6 -4 10 -1 10 3 0 8 -4 11 -10z m37 -25 c0 -5 -5 -11 -11 -13 -6 -2 -11 4 -11 13 0 9 5 15 11 13 6 -2 11 -8 11 -13z m564 -57 c27 -26 30 -38 11 -38 -7 0 -21 14 -30 30 -21 36 -14 39 19 8z"/>
 <path d="M4332 8639 c2 -6 8 -10 13 -10 5 0 11 4 13 10 2 6 -4 11 -13 11 -9 0 -15 -5 -13 -11z"/>
 <path d="M3950 7376 c0 -9 7 -16 16 -16 17 0 14 22 -4 28 -7 2 -12 -3 -12 -12z"/>
 <path d="M3909 7358 c0 -1 -2 -24 -3 -50 -1 -33 -8 -54 -24 -71 -20 -21 -21 -26 -8 -36 24 -20 64 51 62 108 -1 25 -7 46 -14 49 -7 2 -12 2 -13 0z"/>
 <path d="M3976 7343 c-12 -12 -6 -43 9 -43 8 0 15 9 15 19 0 21 -13 34 -24 24z"/>
 <path d="M3487 7303 c-2 -4 -7 -20 -11 -34 -7 -30 -28 -39 -98 -39 -52 0 -62 -14 -30 -43 23 -21 46 -22 62 -2 7 8 22 15 34 15 42 0 89 77 61 100 -7 6 -15 7 -18 3z"/>
 <path d="M3292 7179 c2 -6 8 -10 13 -10 5 0 11 4 13 10 2 6 -4 11 -13 11 -9 0 -15 -5 -13 -11z"/>
 <path d="M3210 7165 c-10 -12 -10 -19 -2 -27 13 -13 42 6 42 28 0 19 -24 18 -40 -1z"/>
 <path d="M3760 7170 c0 -5 5 -10 10 -10 6 0 10 5 10 10 0 6 -4 10 -10 10 -5 0 -10 -4 -10 -10z"/>
 <path d="M3800 7156 c0 -9 7 -16 16 -16 9 0 14 5 12 12 -6 18 -28 21 -28 4z"/>
 <path d="M3297 7143 c-12 -11 -8 -23 8 -23 8 0 15 7 15 15 0 16 -12 20 -23 8z"/>
 <path d="M3630 7132 c0 -9 7 -13 19 -9 26 6 53 -24 49 -54 -4 -34 11 -38 29 -8 15 25 15 28 -6 55 -26 33 -91 44 -91 16z"/>
 <path d="M3530 7116 c-7 -9 -11 -16 -9 -17 2 -1 23 -3 47 -5 37 -3 43 -1 40 14 -4 23 -60 29 -78 8z"/>
 <path d="M3080 7105 c0 -8 5 -15 10 -15 6 0 10 7 10 15 0 8 -4 15 -10 15 -5 0 -10 -7 -10 -15z"/>
 <path d="M3517 7052 c-18 -20 -23 -42 -9 -42 18 0 46 40 36 50 -7 7 -16 4 -27 -8z"/>
 <path d="M3142 7018 c2 -18 10 -23 36 -24 21 -1 32 3 32 12 0 8 -9 14 -20 14 -11 0 -20 5 -20 10 0 6 -7 10 -16 10 -10 0 -14 -7 -12 -22z"/>
 <path d="M3230 7027 c0 -8 19 -30 41 -51 32 -28 39 -40 30 -49 -16 -16 -14 -77 3 -77 8 0 16 7 20 15 3 9 19 15 41 15 41 0 53 17 35 50 -10 18 -8 25 9 41 25 24 27 57 4 66 -11 4 -25 -4 -44 -25 -16 -18 -32 -32 -35 -32 -4 0 -22 14 -41 30 -36 32 -63 39 -63 17z"/>
 <path d="M3670 7005 c0 -8 7 -15 15 -15 8 0 15 7 15 15 0 8 -7 15 -15 15 -8 0 -15 -7 -15 -15z"/>
 <path d="M3486 6973 c-3 -3 -3 -17 1 -31 5 -23 4 -24 -20 -19 -28 8 -43 -13 -24 -32 16 -16 39 -13 66 9 17 15 22 26 17 44 -6 24 -29 40 -40 29z"/>
 <path d="M3187 6924 c-8 -8 1 -24 14 -24 5 0 9 7 9 15 0 15 -12 20 -23 9z"/>
 <path d="M3607 6904 c-4 -4 -7 -11 -7 -15 0 -15 44 -49 63 -49 15 0 18 6 15 33 -3 28 -7 32 -33 35 -17 2 -34 0 -38 -4z"/>
 <path d="M3242 6838 c-25 -25 -14 -46 23 -46 40 0 40 0 19 33 -18 28 -25 30 -42 13z"/>
 <path d="M3380 6800 c0 -5 5 -10 10 -10 6 0 10 5 10 10 0 6 -4 10 -10 10 -5 0 -10 -4 -10 -10z"/>
 <path d="M3312 6768 c6 -18 28 -21 28 -4 0 9 -7 16 -16 16 -9 0 -14 -5 -12 -12z"/>
 <path d="M2805 6340 c-3 -5 -3 -20 1 -34 3 -13 1 -33 -4 -43 -15 -26 0 -47 27 -38 12 4 20 12 18 18 -2 7 2 19 9 28 19 22 0 79 -26 79 -11 0 -21 -4 -25 -10z"/>
 <path d="M2533 6223 c-8 -3 -13 -24 -13 -53 l0 -49 49 -15 c69 -20 89 -32 106 -66 21 -41 19 -73 -8 -98 -30 -28 -57 -28 -148 4 -51 17 -97 25 -147 26 -66 1 -76 -2 -110 -29 -55 -44 -74 -87 -68 -152 3 -30 10 -59 15 -64 40 -40 -21 -67 -178 -78 -127 -9 -163 -17 -236 -56 -182 -97 -219 -257 -126 -542 25 -75 45 -101 78 -101 25 0 30 18 13 48 -36 64 -67 240 -56 314 9 60 39 96 111 132 30 16 60 37 65 46 5 10 17 20 25 24 20 7 271 -28 310 -45 65 -26 94 -44 104 -63 5 -12 12 -79 15 -151 7 -145 24 -248 66 -387 10 -36 39 -56 61 -43 6 4 7 14 3 24 -35 85 -46 340 -17 446 21 81 27 163 14 191 -6 13 -16 35 -22 48 -6 13 -11 40 -12 60 -1 32 -9 44 -64 92 -43 38 -63 63 -63 78 0 21 6 24 72 30 66 6 204 0 236 -10 10 -3 5 -15 -16 -42 -56 -71 -85 -159 -63 -192 15 -22 86 53 112 120 34 84 57 138 100 226 45 92 54 132 41 189 -6 30 -13 39 -26 37 -9 -2 -30 8 -47 22 -17 15 -39 26 -50 26 -25 0 -58 17 -82 41 -18 20 -23 21 -44 12z"/>
 <path d="M2766 6191 c-26 -28 -7 -52 32 -42 20 6 27 14 27 32 0 31 -34 37 -59 10z"/>
 <path d="M4734 6037 c-31 -27 -43 -47 -46 -75 -3 -21 -21 -74 -40 -118 -62 -141 -70 -228 -31 -344 15 -46 39 -74 54 -64 5 3 9 35 9 72 0 138 42 237 122 289 58 39 167 44 252 13 136 -52 413 -269 532 -418 93 -115 140 -160 155 -145 14 14 -24 110 -69 178 -142 209 -347 381 -627 526 -79 41 -133 62 -159 63 -23 1 -55 3 -73 4 -27 2 -32 6 -35 29 l-3 28 -41 -38z"/>
 <path d="M4827 5503 c-4 -3 -7 -19 -7 -34 0 -16 -5 -40 -12 -54 -10 -22 -9 -29 10 -48 21 -21 22 -21 37 -2 8 11 15 26 15 33 0 7 7 26 15 41 11 22 12 32 2 44 -14 18 -50 30 -60 20z"/>
 <path d="M5005 5353 c-22 -22 -18 -43 8 -43 13 0 28 -5 33 -10 6 -6 33 -13 60 -16 40 -5 54 -2 74 14 21 17 22 22 11 36 -9 10 -29 16 -56 16 -23 0 -45 3 -48 6 -13 14 -68 11 -82 -3z"/>
 <path d="M5270 5358 c-56 -21 -51 -44 17 -73 277 -123 414 -290 413 -504 -1 -88 -12 -140 -69 -311 -49 -148 -80 -204 -118 -217 -15 -6 -44 -16 -63 -23 -19 -6 -44 -12 -55 -12 -11 1 -26 -5 -35 -12 -20 -17 -71 -13 -84 7 -13 20 25 64 57 69 12 2 27 14 34 28 18 36 16 105 -3 121 -9 7 -20 22 -24 34 -6 17 -16 20 -70 20 -40 0 -65 4 -67 12 -9 27 67 91 147 123 138 55 200 140 200 269 0 94 -30 161 -72 161 -15 0 -18 -8 -18 -50 0 -27 -5 -72 -11 -100 -9 -43 -14 -51 -30 -47 -10 3 -23 -1 -30 -9 -6 -8 -19 -14 -29 -14 -9 0 -32 -11 -51 -24 -19 -14 -49 -32 -66 -42 -75 -38 -121 -119 -143 -249 -15 -91 -20 -101 -67 -120 -40 -17 -41 -32 -8 -102 67 -144 235 -224 407 -193 76 13 88 17 175 56 91 41 156 114 185 209 33 108 40 149 40 255 1 132 -20 223 -77 346 -67 145 -218 330 -308 375 -49 26 -131 33 -177 17z m140 -583 c0 -27 -71 -48 -85 -25 -3 6 2 13 12 16 10 3 25 9 33 14 23 14 40 12 40 -5z m-176 -387 c22 -31 20 -36 -8 -31 -25 5 -41 27 -30 44 9 15 22 10 38 -13z"/>
 <path d="M4769 5198 c-31 -57 -2 -130 64 -164 47 -25 67 -51 67 -89 0 -48 26 -120 61 -168 32 -45 35 -63 15 -92 -7 -11 -17 -39 -21 -62 -6 -36 -4 -44 10 -50 32 -12 55 16 100 122 10 22 24 53 31 68 8 16 14 37 14 48 0 14 14 26 46 40 27 11 71 45 105 80 47 49 59 68 59 94 0 22 7 37 22 47 14 9 19 20 15 31 -5 13 -19 17 -61 17 -51 0 -57 -3 -98 -44 -98 -99 -128 -137 -128 -167 0 -18 -5 -29 -13 -29 -15 0 -37 41 -37 67 0 40 -27 82 -82 128 -39 32 -61 59 -65 77 -6 32 -46 68 -74 68 -10 0 -24 -10 -30 -22z"/>
 <path d="M4930 4476 c0 -9 7 -16 16 -16 9 0 14 5 12 12 -6 18 -28 21 -28 4z"/>
 <path d="M2257 4433 c-14 -14 -6 -59 12 -70 11 -7 21 -22 23 -35 4 -28 36 -36 44 -11 3 10 11 29 17 42 10 19 8 25 -8 37 -10 8 -24 14 -31 14 -6 0 -14 7 -18 15 -6 15 -28 20 -39 8z"/>
 <path d="M2648 3459 c-21 -12 -24 -39 -5 -39 7 0 18 5 25 12 13 13 16 38 5 38 -5 0 -16 -5 -25 -11z"/>
 <path d="M2820 3410 c0 -11 7 -20 15 -20 8 0 15 9 15 20 0 11 -7 20 -15 20 -8 0 -15 -9 -15 -20z"/>
 <path d="M2546 3375 c-11 -30 -6 -122 9 -159 17 -41 30 -44 64 -15 20 17 22 23 13 42 -7 12 -13 49 -14 82 -3 59 -3 60 -34 63 -22 2 -33 -2 -38 -13z"/>
 <path d="M2820 3355 c0 -18 48 -31 62 -17 16 16 0 32 -33 32 -19 0 -29 -5 -29 -15z"/>
 <path d="M2433 2963 c-21 -8 -15 -33 7 -33 11 0 20 -4 20 -10 0 -5 7 -10 15 -10 18 0 19 19 1 43 -13 17 -21 19 -43 10z"/>
 </g>

</svg>